<svg preserveAspectRatio="none" width="100%" height="100%" overflow="visible" style="display: block;" viewBox="0 0 18.0002 18" fill="none" xmlns="http://www.w3.org/2000/svg">
<g id="Vector">
<path d="M5.8593 0H12.1413C12.3501 0 12.5103 9.47155e-08 12.6507 0.0135001C13.6479 0.1116 14.4642 0.711 14.8107 1.5183H3.1899C3.5364 0.711 4.3527 0.1116 5.3499 0.0135001C5.4885 9.47155e-08 5.6487 0 5.8593 0ZM3.8793 2.4507C2.6283 2.4507 1.6023 3.2067 1.2603 4.2093L1.2387 4.2723C1.5969 4.1643 1.9704 4.0923 2.3475 4.0446C3.3195 3.9195 4.5489 3.9195 5.9763 3.9195H12.1791C13.6065 3.9195 14.835 3.9195 15.8079 4.0446C16.1859 4.0932 16.5585 4.1634 16.9167 4.2723L16.896 4.2093C16.554 3.2067 15.528 2.4507 14.2761 2.4507H3.8793Z" fill="#B05D30"/>
<path fill-rule="evenodd" clip-rule="evenodd" d="M6.0051 4.9878H11.9955C15.0321 4.9878 16.5513 4.9878 17.4045 5.8761C18.2577 6.7644 18.0561 8.136 17.6547 10.8801L17.2749 13.4829C16.9599 15.6348 16.8024 16.7112 15.9951 17.3556C15.1878 18 13.9971 18 11.6148 18H6.3858C4.0044 18 2.8128 18 2.0055 17.3556C1.1982 16.7112 1.0407 15.6348 0.725696 13.4829L0.345896 10.881C-0.0564037 8.136 -0.257104 6.7644 0.596096 5.8761C1.4493 4.9878 2.9685 4.9878 6.0051 4.9878ZM5.4003 14.4C5.4003 14.0274 5.736 13.725 6.15 13.725H11.8506C12.2646 13.725 12.6003 14.0274 12.6003 14.4C12.6003 14.7726 12.2646 15.075 11.8506 15.075H6.15C5.736 15.075 5.4003 14.7726 5.4003 14.4Z" fill="#B05D30"/>
</g>
</svg>
