<svg width="20" height="20" viewBox="0 0 20 20" fill="none" xmlns="http://www.w3.org/2000/svg">
<path d="M15.7141 7.69554C16.6579 6.75163 16.6489 5.21217 15.6874 4.27943C14.7534 3.37338 13.2295 3.40033 12.2905 4.33924L10.1931 6.43675C9.69775 6.93206 8.89623 6.93202 8.40099 6.43678L7.64384 5.67963C7.14853 5.18436 7.14857 4.38275 7.64384 3.88756L9.77494 1.75646C12.1345 -0.603083 15.9718 -0.580349 18.3048 1.79841C20.5995 4.13803 20.5595 7.94839 18.2157 10.2922L16.1321 12.3758C15.6368 12.8711 14.8352 12.871 14.34 12.3758L13.5829 11.6187C13.0876 11.1234 13.0876 10.3218 13.5829 9.82664L15.7141 7.69554Z" fill="#27272A"/>
<path d="M1.75715 9.77433L3.88821 7.64327C4.38352 7.14796 5.18505 7.148 5.68028 7.64323L6.43743 8.40038C6.93146 8.89445 6.93146 9.69832 6.43739 10.1924L4.30629 12.3236C3.36227 13.2675 3.37141 14.807 4.33294 15.7396C5.26704 16.6456 6.79083 16.6187 7.72974 15.6798L9.82725 13.5823C10.3226 13.087 11.1241 13.087 11.6193 13.5823L12.3765 14.3394C12.8705 14.8335 12.8705 15.6374 12.3764 16.1314L10.2928 18.215C7.94888 20.5591 4.13848 20.5986 1.79906 18.3041C-0.583288 15.9675 -0.601921 12.1334 1.75715 9.77433Z" fill="#27272A"/>
<path d="M13.0117 6.25085L13.7689 7.008C14.263 7.50206 14.263 8.30593 13.7689 8.79999L8.80068 13.7682C8.30545 14.2635 7.50384 14.2635 7.00861 13.7682L6.25146 13.0111C5.75614 12.5158 5.75618 11.7143 6.25146 11.2191L11.2197 6.25081C11.7139 5.75678 12.5177 5.75678 13.0117 6.25085Z" fill="#27272A"/>
</svg>
