<svg preserveAspectRatio="none" width="100%" height="100%" overflow="visible" style="display: block;" viewBox="0 0 59.45 59.45" fill="none" xmlns="http://www.w3.org/2000/svg">
<path id="Vector" d="M8.49286 0C3.80852 0 0 3.80852 0 8.49286V50.9571C0 55.6415 3.80852 59.45 8.49286 59.45H50.9571C55.6415 59.45 59.45 55.6415 59.45 50.9571V8.49286C59.45 3.80852 55.6415 0 50.9571 0H8.49286ZM16.9857 10.6161C18.675 10.6161 20.2952 11.2872 21.4897 12.4817C22.6843 13.6762 23.3554 15.2964 23.3554 16.9857C23.3554 18.675 22.6843 20.2952 21.4897 21.4897C20.2952 22.6843 18.675 23.3554 16.9857 23.3554C15.2964 23.3554 13.6762 22.6843 12.4817 21.4897C11.2872 20.2952 10.6161 18.675 10.6161 16.9857C10.6161 15.2964 11.2872 13.6762 12.4817 12.4817C13.6762 11.2872 15.2964 10.6161 16.9857 10.6161ZM36.0946 25.4786C37.2093 25.4786 38.2311 26.0625 38.815 27.0046L50.4927 46.1136C51.0898 47.0955 51.1164 48.3297 50.559 49.3382C50.0017 50.3467 48.9268 50.9571 47.7723 50.9571H11.6777C10.4966 50.9571 9.39522 50.2936 8.85115 49.2453C8.30708 48.197 8.3867 46.923 9.06347 45.9543L16.4947 35.3382C17.0919 34.489 18.0606 33.9847 19.1089 33.9847C20.1573 33.9847 21.126 34.489 21.7231 35.3382L25.2264 40.3543L33.3743 27.0179C33.9582 26.0757 34.98 25.4918 36.0946 25.4918V25.4786Z" fill="white"/>
</svg>
