<svg xmlns="http://www.w3.org/2000/svg" width="22" height="13" viewBox="0 0 24 14.314"><path d="M290.836 524.596c-27.096-20.072-50.206-37.43-51.356-38.571-1.83-1.817 11.2-2.077 104.047-2.077 65.697 0 105.958.512 105.663 1.344-.261.74-23.103 18.097-50.758 38.572-37.79 27.978-51.282 37.227-54.307 37.227-3.024 0-16.281-9.08-53.29-36.495zM236.214 630.106c-1.375-.359-2.46-1.088-2.413-1.62.073-.812 31.885-24.578 76.572-57.202l10.498-7.665 4.993 3.81c12.489 9.525 22.048 9.903 34.54 1.365l7.403-5.06 41.882 30.98c23.035 17.04 42.52 31.58 43.3 32.31.923.867.674 1.798-.715 2.676-2.119 1.34-210.986 1.732-216.06.406zM423.66 588.16c-22.363-16.539-41.424-30.841-42.358-31.784-1.316-1.328 7.423-8.452 38.89-31.7 22.323-16.493 41.16-30.178 41.86-30.411.699-.234 2.163 1.69 3.252 4.272 1.574 3.73 1.982 16.01 1.982 59.697 0 35.473-.527 55.886-1.484 57.497-1.304 2.195-6.403-1.141-42.143-27.572zM222.385 615.563c-1.008-1.884-1.528-21.364-1.528-57.281 0-44.295.385-55.348 2.07-59.38 1.139-2.724 2.418-4.954 2.844-4.954 1.763 0 82.311 60.458 81.93 61.495-.228.622-18.415 14.44-40.415 30.707-22 16.267-40.759 30.182-41.686 30.923-1.145.913-2.178.428-3.215-1.51z" style="opacity:1;fill:#000;fill-opacity:1;stroke:none;stroke-width:7.48886395;stroke-miterlimit:4;stroke-dasharray:none;stroke-opacity:1" transform="matrix(.0974 0 0 .0974 -21.51 -47.132)"/></svg>