<svg width="20" height="20" viewBox="0 0 20 20" fill="none" xmlns="http://www.w3.org/2000/svg">
<g clip-path="url(#clip0_2113_1085)">
<path d="M16.3018 12.2918H15.1559C15.004 12.2918 14.8583 12.3522 14.7508 12.4596C14.6434 12.5671 14.583 12.7128 14.583 12.8647V16.8752H3.12467V5.41683H8.28092C8.43287 5.41683 8.57859 5.35647 8.68604 5.24903C8.79348 5.14158 8.85384 4.99586 8.85384 4.84391V3.69808C8.85384 3.54613 8.79348 3.40041 8.68604 3.29297C8.57859 3.18552 8.43287 3.12516 8.28092 3.12516H2.55176C2.09592 3.12516 1.65875 3.30624 1.33642 3.62857C1.01409 3.9509 0.833008 4.38807 0.833008 4.84391L0.833008 17.4481C0.833008 17.9039 1.01409 18.3411 1.33642 18.6634C1.65875 18.9857 2.09592 19.1668 2.55176 19.1668H15.1559C15.6118 19.1668 16.0489 18.9857 16.3713 18.6634C16.6936 18.3411 16.8747 17.9039 16.8747 17.4481V12.8647C16.8747 12.7128 16.8143 12.5671 16.7069 12.4596C16.5994 12.3522 16.4537 12.2918 16.3018 12.2918ZM18.307 0.833496H13.7236C12.9584 0.833496 12.576 1.76126 13.1149 2.30159L14.3943 3.58099L5.66699 12.3051C5.58688 12.3849 5.52331 12.4798 5.47993 12.5842C5.43656 12.6887 5.41423 12.8007 5.41423 12.9138C5.41423 13.0269 5.43656 13.1389 5.47993 13.2434C5.52331 13.3478 5.58688 13.4427 5.66699 13.5225L6.47874 14.3328C6.55858 14.413 6.65345 14.4765 6.75791 14.5199C6.86237 14.5633 6.97436 14.5856 7.08747 14.5856C7.20057 14.5856 7.31257 14.5633 7.41702 14.5199C7.52148 14.4765 7.61635 14.413 7.69619 14.3328L16.4192 5.60732L17.6982 6.88493C18.2353 7.42204 19.1663 7.04606 19.1663 6.2762V1.69287C19.1663 1.46495 19.0758 1.24637 18.9146 1.0852C18.7535 0.924037 18.5349 0.833496 18.307 0.833496V0.833496Z" fill="#226DC3"/>
</g>
<defs>
<clipPath id="clip0_2113_1085">
<rect width="20" height="20" fill="white"/>
</clipPath>
</defs>
</svg>
