<svg xmlns="http://www.w3.org/2000/svg" width="22" height="22" viewBox="0 0 24 24"><path d="M43.001 228.972c-3.125-1.565-5.439-4.406-6.399-7.856-.464-1.669-.464-4.78 0-6.427 1.54-5.47 6.185-9.102 11.642-9.102 6.045 0 11.028 4.458 11.91 10.656.316 2.216-.137 5.11-1.108 7.085-1.216 2.472-3.37 4.604-5.834 5.773-1.252.594-1.427.615-1.814.218-.264-.27-.287-.49-.287-2.714 0-1.33-.06-2.58-.132-2.777-.126-.34-.096-.365.647-.535 1.118-.257 2.663-1.096 3.43-1.861.384-.384.85-1.074 1.114-1.65.414-.903.453-1.117.455-2.462.001-1.688-.244-2.608-.997-3.732-.33-.49-.437-.775-.349-.918.227-.368.153-2.288-.11-2.853-.213-.46-.304-.52-.782-.52-.756 0-1.985.503-2.633 1.079-.546.484-.547.484-1.271.292-.886-.236-3.648-.234-4.533.004-.632.17-.66.162-1.361-.379-.826-.635-1.746-.996-2.542-.996-.505 0-.576.05-.787.552-.27.646-.305 2.325-.058 2.8.143.275.1.418-.315 1.023-.697 1.017-.979 1.87-1.063 3.214-.124 1.972.561 3.734 1.884 4.847.74.623 2.196 1.34 3.184 1.567.712.163.743.19.617.529a2.672 2.672 0 0 0-.132.773c0 .49-.202.596-1.123.591-.95-.005-1.728-.422-2.46-1.32-.665-.815-1.28-1.179-1.995-1.179-.655 0-.698.289-.117.798.285.25.77.917 1.079 1.484.333.611.802 1.22 1.152 1.498.698.552 1.88.847 2.815.703l.649-.1v.974c0 .777-.058 1.033-.287 1.268-.405.416-.645.377-2.089-.347z" style="opacity:1;fill:#000;fill-opacity:1;stroke:none;stroke-width:.76154494;stroke-miterlimit:4;stroke-dasharray:none;stroke-opacity:1" transform="translate(-36.254 -205.587)"/></svg>