<svg width="49" height="26" viewBox="0 0 49 26" fill="none" xmlns="http://www.w3.org/2000/svg">
<g clip-path="url(#clip0_1726_2485)">
<path d="M46.3823 22.086H2.1397C2.1397 22.086 1.70184 22.1233 1.48756 21.1821C1.27329 20.2502 2.00927 12.4968 2.95952 10.4373C2.95952 10.4373 3.21106 9.64518 3.55576 9.25379C3.90977 8.86239 8.14864 2.91687 8.14864 2.91687H45.4041C45.4041 2.91687 45.9165 2.92619 46.0563 3.5692C46.1122 3.83945 46.9599 6.74698 47.1556 10.195C47.4257 15.1154 47.0438 20.0359 47.0438 20.0359C47.0438 20.0359 47.1183 22.1326 46.3823 22.086Z" fill="#FDFCEA"/>
<path fill-rule="evenodd" clip-rule="evenodd" d="M46.4101 22.1326C46.3977 22.1326 46.3884 22.1326 46.3822 22.1326H2.13956C2.12093 22.1326 1.66444 22.1606 1.44085 21.1914C1.24521 20.3061 1.95324 12.5247 2.91281 10.4186C2.92212 10.3907 3.17366 9.61721 3.52768 9.22581C3.86306 8.83442 8.07398 2.95413 8.11125 2.89822L8.12988 2.87958H45.404C45.404 2.87958 45.963 2.8889 46.1027 3.55986C46.1089 3.59093 46.1244 3.65927 46.1493 3.76488C46.7269 6.02008 47.0809 8.18209 47.1927 10.195C47.4722 15.0595 47.0995 19.9893 47.0902 20.0452C47.0902 20.1011 47.1368 21.5735 46.6896 22.0115C46.6089 22.0922 46.5157 22.1326 46.4101 22.1326ZM46.3822 22.0394C46.4754 22.0457 46.5592 22.0146 46.6337 21.9462C47.0436 21.5362 46.9971 20.0545 46.9971 20.0452C47.0064 19.9893 47.379 15.0595 47.1089 10.195C46.9877 8.19141 46.643 6.03872 46.0654 3.79284C46.0344 3.68101 46.0158 3.60957 46.0095 3.5785C45.8884 2.98209 45.4226 2.96345 45.404 2.96345H8.17646C7.85971 3.40144 3.92827 8.89965 3.59289 9.28173C3.25751 9.66381 3.00597 10.4466 3.00597 10.4466C2.03709 12.5527 1.33837 20.2968 1.53401 21.1728C1.72965 22.0581 2.13025 22.0394 2.13025 22.0394H46.3822Z" fill="#B2B4AA"/>
<path d="M46.3823 22.086H2.1397C2.1397 22.086 1.70184 22.1233 1.48756 21.1821C1.27329 20.2502 2.00927 12.4968 2.95952 10.4373C2.95952 10.4373 3.21106 9.64518 3.55576 9.25379C3.90977 8.86239 8.14864 2.91687 8.14864 2.91687H45.4041C45.4041 2.91687 45.9165 2.92619 46.0563 3.5692C46.1122 3.83945 46.9599 6.74698 47.1556 10.195C47.4257 15.1154 47.0438 20.0359 47.0438 20.0359C47.0438 20.0359 47.1183 22.1326 46.3823 22.086Z" fill="#FDFCEA"/>
<path fill-rule="evenodd" clip-rule="evenodd" d="M46.4101 22.1326C46.3977 22.1326 46.3884 22.1326 46.3822 22.1326H2.13956C2.12093 22.1326 1.66444 22.1606 1.44085 21.1914C1.24521 20.3061 1.95324 12.5247 2.91281 10.4186C2.92212 10.3907 3.17366 9.61721 3.52768 9.22581C3.86306 8.83442 8.07398 2.95413 8.11125 2.89822L8.12988 2.87958H45.404C45.404 2.87958 45.963 2.8889 46.1027 3.55986C46.1089 3.59093 46.1244 3.65927 46.1493 3.76488C46.7269 6.02008 47.0809 8.18209 47.1927 10.195C47.4722 15.0595 47.0995 19.9893 47.0902 20.0452C47.0902 20.1011 47.1368 21.5735 46.6896 22.0115C46.6089 22.0922 46.5157 22.1326 46.4101 22.1326ZM46.3822 22.0394C46.4754 22.0457 46.5592 22.0146 46.6337 21.9462C47.0436 21.5362 46.9971 20.0545 46.9971 20.0452C47.0064 19.9893 47.379 15.0595 47.1089 10.195C46.9877 8.19141 46.643 6.03872 46.0654 3.79284C46.0344 3.68101 46.0158 3.60957 46.0095 3.5785C45.8884 2.98209 45.4226 2.96345 45.404 2.96345H8.17646C7.85971 3.40144 3.92827 8.89965 3.59289 9.28173C3.25751 9.66381 3.00597 10.4466 3.00597 10.4466C2.03709 12.5527 1.33837 20.2968 1.53401 21.1728C1.72965 22.0581 2.13025 22.0394 2.13025 22.0394H46.3822Z" fill="#B2B4AA"/>
<path d="M47.0763 20.0706C47.0763 20.0706 47.1508 22.1787 46.4146 22.1318H2.16105C2.16105 22.1318 1.72308 22.1693 1.50876 21.223C1.35034 20.511 1.7324 15.8452 2.34742 12.7347H47.272C47.3372 16.6978 47.0763 20.0706 47.0763 20.0706Z" fill="#F26A51"/>
<g style="mix-blend-mode:multiply" opacity="0.3">
<path d="M47.0437 20.0768C47.0437 20.0768 47.1182 22.1785 46.3822 22.1318H2.13959C2.13959 22.1318 1.70173 22.1692 1.48746 21.2257C1.46883 21.1417 1.45951 20.9829 1.4502 20.7774C2.55882 20.7867 4.31958 20.8054 4.6177 20.768C5.06488 20.712 5.08351 21.5807 5.08351 21.5807H5.87539C5.87539 21.5807 7.16102 18.769 7.41256 18.2459C7.65478 17.7321 8.01811 17.6387 8.01811 17.6387H13.1234C14.1575 17.6387 14.2693 18.1151 14.2693 18.1151L15.0798 21.3378H32.7154C32.7154 21.3378 33.3582 20.0861 33.9358 19.152C34.5134 18.2085 35.9574 18.3673 35.9574 18.3673C35.9574 18.3673 40.6807 18.4047 41.1558 18.3673C41.631 18.3299 42.2645 19.5163 42.2645 19.5163C42.2645 19.5163 42.9073 13.7247 42.6744 10.9504C42.4321 8.176 41.1558 3.48669 41.1558 3.48669H7.74795C7.99948 3.14106 8.14854 2.91687 8.14854 2.91687H45.404C45.404 2.91687 45.9164 2.92621 46.0561 3.57076C46.112 3.84165 46.9598 6.75613 47.1555 10.2124C47.4256 15.1446 47.0437 20.0768 47.0437 20.0768Z" fill="#7A7A7D"/>
</g>
<g style="mix-blend-mode:multiply" opacity="0.3">
<path d="M47.0437 20.0359C47.0437 20.0359 47.1182 22.1326 46.3822 22.086H44.696C44.9662 21.0796 45.1711 20.0545 45.3295 19.0294C45.5438 17.5291 45.6649 16.0194 45.7022 14.5097C45.7301 13.0653 45.6928 11.6208 45.5904 10.1857C45.4879 8.74124 45.3295 7.2968 45.0687 5.87099C44.8823 4.87386 44.6494 3.88605 44.3513 2.91687H45.404C45.404 2.91687 45.9164 2.92619 46.0562 3.5692C46.1121 3.83945 46.9599 6.74698 47.1555 10.195C47.4257 15.1154 47.0437 20.0359 47.0437 20.0359Z" fill="#7A7A7D"/>
</g>
<path d="M47.7891 21.3871V22.3563C47.7518 22.7943 47.0251 22.7943 47.0251 22.7943H44.547C44.1464 22.7943 44.2116 22.4681 44.2116 22.4681C44.2116 22.4681 44.1744 21.8531 44.2116 21.4617C44.2582 21.0796 44.7613 21.0143 44.7613 21.0143H47.3232C47.9102 21.0143 47.7891 21.3871 47.7891 21.3871Z" fill="#CBCCCE"/>
<path fill-rule="evenodd" clip-rule="evenodd" d="M44.547 22.8408C44.3979 22.8408 44.2923 22.8004 44.2302 22.7197C44.1464 22.6265 44.165 22.496 44.165 22.4681C44.165 22.4028 44.1277 21.8251 44.1743 21.4616C44.2209 21.0423 44.7333 20.9677 44.7519 20.9677H47.3232C47.553 20.9677 47.7083 21.0236 47.789 21.1355C47.8635 21.238 47.8449 21.3591 47.8356 21.3871V22.3562C47.7983 22.8315 47.053 22.8408 47.0251 22.8408H44.547ZM44.7612 21.0609C44.7612 21.0609 44.3047 21.1261 44.2675 21.4709C44.2209 21.8437 44.2675 22.4588 44.2675 22.4681V22.4774C44.2675 22.4774 44.2395 22.5892 44.3047 22.6638C44.3482 22.7197 44.4289 22.7476 44.547 22.7476H47.0251C47.0344 22.7476 47.7145 22.7383 47.7424 22.3469V21.3777L47.7517 21.3684C47.7517 21.3684 47.7797 21.2659 47.7145 21.182C47.6586 21.0982 47.5188 21.0609 47.3232 21.0609H44.7612Z" fill="#7A7D84"/>
<g style="mix-blend-mode:multiply">
<path fill-rule="evenodd" clip-rule="evenodd" d="M47.7891 21.3871V22.3563C47.7518 22.7943 47.0251 22.7943 47.0251 22.7943H44.547C44.1464 22.7943 44.2116 22.4681 44.2116 22.4681C44.2116 22.4681 44.1744 21.8531 44.2116 21.4617C44.2582 21.0796 44.7613 21.0143 44.7613 21.0143H47.3232C47.9102 21.0143 47.7891 21.3871 47.7891 21.3871ZM46.4196 21.4244H44.7706C44.7706 21.4244 44.4538 21.4617 44.4166 21.7133C44.3886 21.9556 44.4166 22.3563 44.4166 22.3563C44.4166 22.3563 44.3793 22.5706 44.6309 22.5706H46.2239C46.2239 22.5706 46.6897 22.5613 46.7177 22.2817V21.6574C46.7177 21.6574 46.7922 21.4244 46.4196 21.4244Z" fill="#CBCCCE"/>
</g>
<path d="M13.8967 19.3929C14.083 20.2502 14.3439 21.4244 14.4929 22.0861H6.17358L7.44059 19.1226C7.44059 19.1226 7.89708 18.2094 8.86597 18.0789H12.4993C12.4993 18.0789 13.6079 18.1255 13.8967 19.3929Z" fill="#3B3D3F"/>
<path fill-rule="evenodd" clip-rule="evenodd" d="M14.5489 22.1326H6.09912L7.39407 19.104C7.40339 19.0947 7.87852 18.1628 8.85672 18.0323H12.4994C12.518 18.0323 12.7975 18.0509 13.1142 18.2187C13.403 18.3771 13.785 18.7126 13.934 19.3835C14.139 20.2595 14.3999 21.443 14.5303 22.0767L14.5489 22.1326ZM6.24818 22.0395H14.4371C14.2974 21.3964 14.0458 20.2502 13.8502 19.4022C13.7384 18.8896 13.4776 18.5262 13.077 18.3025C12.7882 18.1441 12.5273 18.1255 12.5087 18.1255H8.87535C7.94373 18.2466 7.48723 19.1319 7.48723 19.1412L6.24818 22.0395Z" fill="#434445"/>
<path d="M41.7707 20.0918L42.6743 22.086H33.4233L34.3177 20.0918C34.3177 20.0918 34.709 18.9362 36.1437 18.9362C36.2927 18.9362 36.4418 18.9362 36.5908 18.9362C37.951 18.9362 39.4975 18.9362 39.4975 18.9362C39.6528 18.9362 39.8018 18.9362 39.9447 18.9362C41.3794 18.9362 41.7707 20.0918 41.7707 20.0918Z" fill="#828487"/>
<path fill-rule="evenodd" clip-rule="evenodd" d="M42.7396 22.1327H33.3489L34.2805 20.0732C34.2805 20.0638 34.6904 18.8896 36.1437 18.8896H39.9447C40.7087 18.8896 41.1745 19.2065 41.4353 19.4861C41.7148 19.775 41.808 20.0638 41.8173 20.0825L42.7396 22.1327ZM33.4886 22.0395H42.5999L41.7241 20.1104C41.7241 20.0918 41.3235 18.9735 39.9447 18.9735H36.1437C34.7556 18.9735 34.3643 20.0918 34.355 20.1104L33.4886 22.0395Z" fill="#434445"/>
<path d="M41.7707 20.0918L42.6743 22.086H33.4233L34.3177 20.0918C34.3177 20.0918 34.709 18.9362 36.1437 18.9362C36.2927 18.9362 36.4418 18.9362 36.5908 18.9362C37.951 18.9362 39.4975 18.9362 39.4975 18.9362C39.6528 18.9362 39.8018 18.9362 39.9447 18.9362C41.3794 18.9362 41.7707 20.0918 41.7707 20.0918Z" fill="#3B3D3F"/>
<path fill-rule="evenodd" clip-rule="evenodd" d="M42.7396 22.1327H33.3489L34.2805 20.0732C34.2805 20.0638 34.6904 18.8896 36.1437 18.8896H39.9447C40.7087 18.8896 41.1745 19.2065 41.4353 19.4861C41.7148 19.775 41.808 20.0638 41.8173 20.0825L42.7396 22.1327ZM33.4886 22.0395H42.5999L41.7241 20.1104C41.7241 20.0918 41.3235 18.9735 39.9447 18.9735H36.1437C34.7556 18.9735 34.3643 20.0918 34.355 20.1104L33.4886 22.0395Z" fill="#434445"/>
<path d="M46.0003 20.8001H47.23C47.23 20.8001 47.6772 20.7628 47.6492 20.3528C47.6306 19.9427 47.3511 18.4237 47.3511 18.4237C47.3511 18.4237 47.1834 18.1814 47.3697 18.0603C47.5561 17.9391 47.8914 17.818 47.9567 18.2001C48.0219 18.5915 48.4038 21.2847 48.4038 21.2847L48.115 22.3563C48.115 22.3563 47.9567 22.5986 47.5281 22.552C47.1089 22.4961 47.202 21.4244 47.202 21.4244C47.202 21.4244 47.2859 21.1262 46.5406 21.1822H46.0003C46.0003 21.1822 45.7767 21.0144 46.0003 20.8001Z" fill="#CBCCCE"/>
<path fill-rule="evenodd" clip-rule="evenodd" d="M47.6493 22.6079C47.6121 22.6079 47.5717 22.6048 47.5282 22.5986C47.0624 22.5426 47.1463 21.471 47.1556 21.4244C47.1556 21.415 47.1649 21.3685 47.1276 21.3219C47.0904 21.2753 46.9506 21.1914 46.5407 21.2287H45.9817L45.9724 21.2193C45.9631 21.2193 45.8606 21.1355 45.8513 21.005C45.8513 20.9242 45.8886 20.8466 45.9631 20.772L45.9817 20.7534H47.2301C47.2394 20.7534 47.6214 20.7161 47.6028 20.362C47.5841 19.9706 47.3326 18.5728 47.3046 18.4423C47.286 18.405 47.2208 18.2839 47.2394 18.172C47.2519 18.1099 47.286 18.0602 47.3419 18.0229C47.4071 17.9763 47.64 17.8366 47.8264 17.9204C47.9195 17.9639 47.9785 18.0571 48.0034 18.2C48.0593 18.5728 48.4412 21.2473 48.4505 21.2753V21.2846L48.1617 22.3842C48.1524 22.3935 48.0034 22.6079 47.6493 22.6079ZM46.727 21.1262C46.9631 21.1262 47.1214 21.1728 47.2022 21.2659C47.2581 21.3312 47.2488 21.4057 47.2394 21.443C47.2208 21.7133 47.2208 22.4681 47.5376 22.5054C47.9009 22.552 48.0499 22.3656 48.0779 22.3376L48.3574 21.2846C48.3294 21.1075 47.9661 18.5821 47.9102 18.2093C47.8916 18.1037 47.8512 18.0354 47.7891 18.0043C47.6773 17.9577 47.5096 18.0229 47.3885 18.0975C47.3574 18.1223 47.3388 18.1534 47.3326 18.1907C47.314 18.2839 47.3885 18.3957 47.3885 18.3957L47.3978 18.4143C47.4071 18.4796 47.6773 19.9426 47.6959 20.3527C47.7146 20.7161 47.3978 20.8373 47.2301 20.8466H46.019C45.9693 20.9025 45.9445 20.9553 45.9445 21.005C45.9445 21.0702 45.9911 21.1168 46.0097 21.1355H46.5407C46.6028 21.1293 46.6649 21.1262 46.727 21.1262Z" fill="#7A7D84"/>
<path d="M13.9991 22.5148C13.9991 24.3972 12.4712 25.9255 10.5987 25.9255C8.71682 25.9255 7.18896 24.3972 7.18896 22.5148C7.18896 20.6417 8.71682 19.1133 10.5987 19.1133C12.4712 19.1133 13.9991 20.6417 13.9991 22.5148Z" fill="#484848"/>
<path d="M13.8036 22.5147C13.8036 24.2946 12.3689 25.7297 10.5989 25.7297C8.81946 25.7297 7.38477 24.2946 7.38477 22.5147C7.38477 20.7441 8.81946 19.309 10.5989 19.309C12.3689 19.309 13.8036 20.7441 13.8036 22.5147Z" fill="#2A2C2C"/>
<path d="M12.9557 22.4494C12.9557 23.7541 11.8937 24.8165 10.5987 24.8165C9.29447 24.8165 8.23242 23.7541 8.23242 22.4494C8.23242 21.1541 9.29447 20.0917 10.5987 20.0917C11.8937 20.0917 12.9557 21.1541 12.9557 22.4494Z" fill="#484848"/>
<path d="M12.7881 22.4682C12.7881 23.6797 11.8099 24.6675 10.5988 24.6675C9.37835 24.6675 8.40015 23.6797 8.40015 22.4682C8.40015 21.2568 9.37835 20.2783 10.5988 20.2783C11.8099 20.2783 12.7881 21.2568 12.7881 22.4682Z" fill="#9DAEB4"/>
<path d="M12.3969 22.4682C12.3969 23.4653 11.5864 24.2761 10.5988 24.2761C9.60201 24.2761 8.7915 23.4653 8.7915 22.4682C8.7915 21.4711 9.60201 20.6696 10.5988 20.6696C11.5864 20.6696 12.3969 21.4711 12.3969 22.4682Z" fill="#2E3230"/>
<path d="M12.0987 22.4681C12.0987 23.2975 11.428 23.9778 10.5988 23.9778C9.76037 23.9778 9.0896 23.2975 9.0896 22.4681C9.0896 21.6387 9.76037 20.9584 10.5988 20.9584C11.428 20.9584 12.0987 21.6387 12.0987 22.4681Z" fill="#9DAEB4"/>
<g style="mix-blend-mode:screen">
<path d="M11.6142 21.9929C11.6142 22.5054 11.1484 22.9154 10.5708 22.9154C9.99319 22.9154 9.51807 22.5054 9.51807 21.9929C9.51807 21.4896 9.99319 21.0796 10.5708 21.0796C11.1484 21.0796 11.6142 21.4896 11.6142 21.9929Z" fill="#9DAEB4"/>
</g>
<path d="M41.3516 22.5148C41.3516 24.3972 39.8238 25.9255 37.9419 25.9255C36.06 25.9255 34.5415 24.3972 34.5415 22.5148C34.5415 20.6417 36.06 19.1133 37.9419 19.1133C39.8238 19.1133 41.3516 20.6417 41.3516 22.5148Z" fill="#484848"/>
<path d="M41.1559 22.5147C41.1559 24.2946 39.7212 25.7297 37.9418 25.7297C36.1718 25.7297 34.7371 24.2946 34.7371 22.5147C34.7371 20.7441 36.1718 19.309 37.9418 19.309C39.7212 19.309 41.1559 20.7441 41.1559 22.5147Z" fill="#2A2C2C"/>
<path d="M40.2987 22.4494C40.2987 23.7541 39.246 24.8165 37.9417 24.8165C36.6468 24.8165 35.5847 23.7541 35.5847 22.4494C35.5847 21.1541 36.6468 20.0917 37.9417 20.0917C39.246 20.0917 40.2987 21.1541 40.2987 22.4494Z" fill="#484848"/>
<path d="M40.1404 22.4682C40.1404 23.6797 39.1529 24.6675 37.9417 24.6675C36.7306 24.6675 35.7524 23.6797 35.7524 22.4682C35.7524 21.2568 36.7306 20.2783 37.9417 20.2783C39.1529 20.2783 40.1404 21.2568 40.1404 22.4682Z" fill="#9DAEB4"/>
<path d="M39.7492 22.4682C39.7492 23.4653 38.9387 24.2761 37.9418 24.2761C36.9543 24.2761 36.1438 23.4653 36.1438 22.4682C36.1438 21.4711 36.9543 20.6696 37.9418 20.6696C38.9387 20.6696 39.7492 21.4711 39.7492 22.4682Z" fill="#2E3230"/>
<path d="M39.451 22.4681C39.451 23.2975 38.7803 23.9778 37.9418 23.9778C37.1127 23.9778 36.4419 23.2975 36.4419 22.4681C36.4419 21.6387 37.1127 20.9584 37.9418 20.9584C38.7803 20.9584 39.451 21.6387 39.451 22.4681Z" fill="#9DAEB4"/>
<g style="mix-blend-mode:screen">
<path d="M38.9665 21.9929C38.9665 22.5054 38.5007 22.9154 37.9231 22.9154C37.3455 22.9154 36.8704 22.5054 36.8704 21.9929C36.8704 21.4896 37.3455 21.0796 37.9231 21.0796C38.5007 21.0796 38.9665 21.4896 38.9665 21.9929Z" fill="#9DAEB4"/>
</g>
<path fill-rule="evenodd" clip-rule="evenodd" d="M6.27612 20.6416H4.0216C4.00296 20.6416 3.98433 20.623 3.97501 20.595L3.76074 17.585L4.30108 10.2043C4.30108 10.1857 4.31971 10.1671 4.34766 10.1671L16.9245 10.2975C16.9525 10.2975 16.9711 10.3162 16.9711 10.3441V17.6036C16.9711 17.6316 16.9525 17.6502 16.9245 17.6502H8.23252C8.21388 17.6409 7.75739 17.5943 7.57107 17.9671L6.31338 20.6136C6.30406 20.6323 6.28543 20.6416 6.27612 20.6416ZM4.06818 20.5484H6.23885L7.49654 17.9298C7.70149 17.5011 8.23252 17.557 8.24183 17.557H16.8779V10.3814L4.39424 10.2602L3.8539 17.585L4.06818 20.5484Z" fill="#A68176"/>
<path d="M23.8557 4.75271C23.8557 5.0882 23.8557 5.45164 23.8557 5.79644C23.8557 6.73766 23.8557 7.55773 23.8557 7.55773C23.8557 7.90253 23.8557 8.26597 23.8557 8.61078C23.8557 9.88748 22.6819 9.78497 22.6819 9.78497H22.1229H19.738H19.1697C19.1697 9.78497 17.9958 9.88748 17.9958 8.61078C17.9958 8.26597 17.9958 7.90253 17.9958 7.55773C17.9958 7.55773 17.9958 6.73766 17.9958 5.79644C17.9958 5.45164 17.9958 5.0882 17.9958 4.75271C17.9958 3.46669 19.1697 3.5692 19.1697 3.5692H19.738H22.1229H22.6819C22.6819 3.5692 23.8557 3.46669 23.8557 4.75271Z" fill="#7A7A7D"/>
<path fill-rule="evenodd" clip-rule="evenodd" d="M19.1137 9.83155C18.9647 9.83155 18.5827 9.8036 18.2939 9.54266C18.061 9.32833 17.9492 9.01148 17.9492 8.61076V4.7527C17.9492 4.34266 18.061 4.02582 18.2939 3.81148C18.6572 3.48532 19.1603 3.52259 19.179 3.52259H22.6725C22.7191 3.52259 23.2036 3.49463 23.5576 3.81148C23.7905 4.02582 23.9023 4.34266 23.9023 4.7527V8.61076C23.9023 9.01148 23.7905 9.32833 23.5576 9.54266C23.1942 9.86883 22.7005 9.83155 22.6725 9.83155H19.1696C19.1696 9.83155 19.151 9.83155 19.1137 9.83155ZM19.1231 3.61578C18.9833 3.61578 18.62 3.63442 18.3591 3.88603C18.1449 4.07241 18.0424 4.37062 18.0424 4.7527V8.61076C18.0424 8.98352 18.1449 9.28173 18.3591 9.47743C18.6852 9.77564 19.1696 9.73836 19.1696 9.73836H22.6818C22.6912 9.73836 23.1663 9.77564 23.4924 9.47743C23.7066 9.28173 23.8091 8.98352 23.8091 8.61076V4.7527C23.8091 4.37062 23.7066 4.07241 23.4924 3.88603C23.1663 3.57851 22.6912 3.61578 22.6818 3.61578H19.1696C19.1696 3.61578 19.1541 3.61578 19.1231 3.61578Z" fill="#5F6062"/>
<g style="mix-blend-mode:screen">
<path d="M23.6787 4.87395C23.6787 5.19079 23.6787 5.52627 23.6787 5.85244C23.6787 6.73774 23.6787 7.5019 23.6787 7.5019C23.6787 7.82807 23.6787 8.16355 23.6787 8.48972C23.6787 9.69187 22.5701 9.59868 22.5701 9.59868H22.0484H19.8032H19.2815C19.2815 9.59868 18.1729 9.69187 18.1729 8.48972C18.1729 8.16355 18.1729 7.82807 18.1729 7.5019C18.1729 7.5019 18.1729 6.73774 18.1729 5.85244C18.1729 5.52627 18.1729 5.19079 18.1729 4.87395C18.1729 3.67179 19.2815 3.76498 19.2815 3.76498H19.8032H22.0484H22.5701C22.5701 3.76498 23.6787 3.67179 23.6787 4.87395Z" fill="#7A7A7D"/>
</g>
<path d="M23.5111 4.95773C23.5111 5.26526 23.5111 5.5821 23.5111 5.88031C23.5111 6.7097 23.5111 7.43658 23.5111 7.43658C23.5111 7.74411 23.5111 8.06096 23.5111 8.35917C23.5111 9.48676 22.4677 9.40289 22.4677 9.40289H21.9739H19.8777H19.384C19.384 9.40289 18.3406 9.48676 18.3406 8.35917C18.3406 8.06096 18.3406 7.74411 18.3406 7.43658C18.3406 7.43658 18.3406 6.7097 18.3406 5.88031C18.3406 5.5821 18.3406 5.26526 18.3406 4.95773C18.3406 3.83013 19.384 3.92332 19.384 3.92332H19.8777H21.9739H22.4677C22.4677 3.92332 23.5111 3.83013 23.5111 4.95773Z" fill="#7A7A7D"/>
<path fill-rule="evenodd" clip-rule="evenodd" d="M19.328 9.44953C19.1976 9.44953 18.8622 9.42157 18.6014 9.18859C18.3964 9.00221 18.2939 8.72264 18.2939 8.3592V4.95777C18.2939 4.59433 18.3964 4.31476 18.6014 4.12838C18.9181 3.83949 19.3653 3.86745 19.3839 3.87677H22.4676C22.5049 3.86745 22.9334 3.84881 23.2502 4.12838C23.4551 4.31476 23.5576 4.59433 23.5576 4.95777V8.3592C23.5576 8.72264 23.4551 9.00221 23.2502 9.18859C22.9334 9.4868 22.4862 9.44953 22.4676 9.44953H19.3839C19.3777 9.44953 19.3591 9.44953 19.328 9.44953ZM19.3374 3.96064C19.2162 3.96064 18.8995 3.98859 18.6666 4.20293C18.4803 4.37067 18.3871 4.62229 18.3871 4.95777V8.3592C18.3871 8.69469 18.4803 8.95562 18.6666 9.12336C18.9554 9.38429 19.3746 9.35634 19.3746 9.35634H22.4676C22.4769 9.35634 22.8961 9.38429 23.1849 9.12336C23.3713 8.95562 23.4644 8.69469 23.4644 8.3592V4.95777C23.4644 4.62229 23.3713 4.37067 23.1849 4.20293C22.8961 3.93268 22.4769 3.96064 22.4769 3.96064H22.4676H19.3839C19.3777 3.96064 19.3622 3.96064 19.3374 3.96064Z" fill="#48494B"/>
<g style="mix-blend-mode:multiply">
<path fill-rule="evenodd" clip-rule="evenodd" d="M23.5111 4.95773C23.5111 5.26526 23.5111 5.5821 23.5111 5.88031C23.5111 6.7097 23.5111 7.43658 23.5111 7.43658C23.5111 7.74411 23.5111 8.06096 23.5111 8.35917C23.5111 9.48676 22.4677 9.40289 22.4677 9.40289H19.384C19.384 9.40289 18.3406 9.48676 18.3406 8.35917C18.3406 8.06096 18.3406 7.74411 18.3406 7.43658C18.3406 7.43658 18.3406 6.7097 18.3406 5.88031C18.3406 5.5821 18.3406 5.26526 18.3406 4.95773C18.3406 3.83013 19.384 3.92332 19.384 3.92332H22.4677C22.4677 3.92332 23.5111 3.83013 23.5111 4.95773ZM23.2036 5.16275C23.2036 4.16562 22.2906 4.24949 22.2906 4.24949H19.561C19.561 4.24949 18.648 4.16562 18.648 5.16275C18.648 5.433 18.648 5.71257 18.648 5.9735C18.648 6.7097 18.648 7.34339 18.648 7.34339C18.648 7.61365 18.648 7.89322 18.648 8.15415C18.648 9.15128 19.561 9.07673 19.561 9.07673H22.2906C22.2906 9.07673 23.2036 9.15128 23.2036 8.15415C23.2036 7.89322 23.2036 7.61365 23.2036 7.34339C23.2036 7.34339 23.2036 6.7097 23.2036 5.9735C23.2036 5.71257 23.2036 5.433 23.2036 5.16275Z" fill="#7A7A7D"/>
</g>
<path d="M30.8521 4.75271C30.8521 5.0882 30.8521 5.45164 30.8521 5.79644C30.8521 6.73766 30.8521 7.55773 30.8521 7.55773C30.8521 7.90253 30.8521 8.26597 30.8521 8.61078C30.8521 9.88748 29.669 9.78497 29.669 9.78497H29.11H26.725H26.1661C26.1661 9.78497 24.9829 9.88748 24.9829 8.61078C24.9829 8.26597 24.9829 7.90253 24.9829 7.55773C24.9829 7.55773 24.9829 6.73766 24.9829 5.79644C24.9829 5.45164 24.9829 5.0882 24.9829 4.75271C24.9829 3.46669 26.1661 3.5692 26.1661 3.5692H26.725H29.11H29.669C29.669 3.5692 30.8521 3.46669 30.8521 4.75271Z" fill="#7A7A7D"/>
<path fill-rule="evenodd" clip-rule="evenodd" d="M26.1008 9.83155C25.9517 9.83155 25.5791 9.8036 25.2903 9.54266C25.0574 9.32833 24.9363 9.01148 24.9363 8.61076V4.7527C24.9363 4.34266 25.0574 4.02582 25.2903 3.81148C25.6443 3.48532 26.1474 3.52259 26.166 3.52259H29.6689C29.7062 3.52259 30.1999 3.49463 30.5446 3.81148C30.7775 4.02582 30.8986 4.34266 30.8986 4.7527V8.61076C30.8986 9.01148 30.7775 9.32833 30.5446 9.54266C30.1906 9.86883 29.6875 9.83155 29.6689 9.83155H26.166C26.166 9.83155 26.1381 9.83155 26.1008 9.83155ZM26.1101 3.61578C25.9797 3.61578 25.6164 3.63442 25.3462 3.88603C25.1412 4.07241 25.0294 4.37062 25.0294 4.7527V8.61076C25.0294 8.98352 25.1412 9.28173 25.3462 9.47743C25.6816 9.77564 26.1567 9.73836 26.166 9.73836H29.6689C29.6782 9.73836 30.1534 9.77564 30.4887 9.47743C30.6937 9.28173 30.8055 8.98352 30.8055 8.61076V4.7527C30.8055 4.37062 30.6937 4.07241 30.4887 3.88603C30.1534 3.57851 29.6782 3.61578 29.6782 3.61578H29.6689H26.166C26.166 3.61578 26.1474 3.61578 26.1101 3.61578Z" fill="#5F6062"/>
<g style="mix-blend-mode:screen">
<path d="M30.6657 4.87395C30.6657 5.19079 30.6657 5.52627 30.6657 5.85244C30.6657 6.73774 30.6657 7.5019 30.6657 7.5019C30.6657 7.82807 30.6657 8.16355 30.6657 8.48972C30.6657 9.69187 29.5664 9.59868 29.5664 9.59868H29.0354H26.7995H26.2778C26.2778 9.59868 25.1692 9.69187 25.1692 8.48972C25.1692 8.16355 25.1692 7.82807 25.1692 7.5019C25.1692 7.5019 25.1692 6.73774 25.1692 5.85244C25.1692 5.52627 25.1692 5.19079 25.1692 4.87395C25.1692 3.67179 26.2778 3.76498 26.2778 3.76498H26.7995H29.0354H29.5664C29.5664 3.76498 30.6657 3.67179 30.6657 4.87395Z" fill="#7A7A7D"/>
</g>
<path d="M30.5074 4.95773C30.5074 5.26526 30.5074 5.5821 30.5074 5.88031C30.5074 6.7097 30.5074 7.43658 30.5074 7.43658C30.5074 7.74411 30.5074 8.06096 30.5074 8.35917C30.5074 9.48676 29.464 9.40289 29.464 9.40289H28.9703H26.8648H26.3711C26.3711 9.40289 25.3276 9.48676 25.3276 8.35917C25.3276 8.06096 25.3276 7.74411 25.3276 7.43658C25.3276 7.43658 25.3276 6.7097 25.3276 5.88031C25.3276 5.5821 25.3276 5.26526 25.3276 4.95773C25.3276 3.83013 26.3711 3.92332 26.3711 3.92332H26.8648H28.9703H29.464C29.464 3.92332 30.5074 3.83013 30.5074 4.95773Z" fill="#7A7A7D"/>
<path fill-rule="evenodd" clip-rule="evenodd" d="M26.3151 9.44953C26.1846 9.44953 25.8493 9.42157 25.5977 9.18859C25.3928 9.00221 25.2903 8.72264 25.2903 8.3592V4.95777C25.2903 4.59433 25.3928 4.31476 25.5977 4.12838C25.9145 3.83949 26.3616 3.86745 26.3803 3.87677H29.4639C29.5012 3.86745 29.9298 3.84881 30.2372 4.12838C30.4421 4.31476 30.5539 4.59433 30.5539 4.95777V8.3592C30.5539 8.72264 30.4421 9.00221 30.2372 9.18859C29.9204 9.4868 29.4826 9.44953 29.4546 9.44953H26.371C26.371 9.44953 26.3523 9.44953 26.3151 9.44953ZM26.3244 3.96064C26.2033 3.96064 25.8865 3.98859 25.6536 4.20293C25.4673 4.37067 25.3741 4.62229 25.3741 4.95777V8.3592C25.3741 8.69469 25.4673 8.95562 25.6536 9.12336C25.9424 9.38429 26.3616 9.35634 26.371 9.35634H29.4639C29.4733 9.35634 29.8925 9.38429 30.1813 9.12336C30.3676 8.95562 30.4608 8.69469 30.4608 8.3592V4.95777C30.4608 4.62229 30.3676 4.37067 30.1813 4.20293C29.8925 3.93268 29.4733 3.96064 29.4639 3.96064H26.371C26.371 3.96064 26.3554 3.96064 26.3244 3.96064Z" fill="#48494B"/>
<g style="mix-blend-mode:multiply">
<path fill-rule="evenodd" clip-rule="evenodd" d="M30.5074 4.95773C30.5074 5.26526 30.5074 5.5821 30.5074 5.88031C30.5074 6.7097 30.5074 7.43658 30.5074 7.43658C30.5074 7.74411 30.5074 8.06096 30.5074 8.35917C30.5074 9.48676 29.464 9.40289 29.464 9.40289H26.3711C26.3711 9.40289 25.3276 9.48676 25.3276 8.35917C25.3276 8.06096 25.3276 7.74411 25.3276 7.43658C25.3276 7.43658 25.3276 6.7097 25.3276 5.88031C25.3276 5.5821 25.3276 5.26526 25.3276 4.95773C25.3276 3.83013 26.3711 3.92332 26.3711 3.92332H29.464C29.464 3.92332 30.5074 3.83013 30.5074 4.95773ZM30.2 5.16275C30.2 4.16562 29.2777 4.24949 29.2777 4.24949H26.5574C26.5574 4.24949 25.6351 4.16562 25.6351 5.16275C25.6351 5.433 25.6351 5.71257 25.6351 5.9735C25.6351 6.7097 25.6351 7.34339 25.6351 7.34339C25.6351 7.61365 25.6351 7.89322 25.6351 8.15415C25.6351 9.15128 26.5574 9.07673 26.5574 9.07673H29.2777C29.2777 9.07673 30.2 9.15128 30.2 8.15415C30.2 7.89322 30.2 7.61365 30.2 7.34339C30.2 7.34339 30.2 6.7097 30.2 5.9735C30.2 5.71257 30.2 5.433 30.2 5.16275Z" fill="#7A7A7D"/>
</g>
<path d="M37.8394 4.75271C37.8394 5.0882 37.8394 5.45164 37.8394 5.79644C37.8394 6.73766 37.8394 7.55773 37.8394 7.55773C37.8394 7.90253 37.8394 8.26597 37.8394 8.61078C37.8394 9.88748 36.6655 9.78497 36.6655 9.78497H36.1066H33.7123H33.1533C33.1533 9.78497 31.9795 9.88748 31.9795 8.61078C31.9795 8.26597 31.9795 7.90253 31.9795 7.55773C31.9795 7.55773 31.9795 6.73766 31.9795 5.79644C31.9795 5.45164 31.9795 5.0882 31.9795 4.75271C31.9795 3.46669 33.1533 3.5692 33.1533 3.5692H33.7123H36.1066H36.6655C36.6655 3.5692 37.8394 3.46669 37.8394 4.75271Z" fill="#7A7A7D"/>
<path fill-rule="evenodd" clip-rule="evenodd" d="M33.0974 9.83155C32.9483 9.83155 32.5664 9.8036 32.2776 9.54266C32.0447 9.32833 31.9329 9.01148 31.9329 8.61076V4.7527C31.9329 4.34266 32.0447 4.02582 32.2776 3.81148C32.6409 3.48532 33.144 3.52259 33.1626 3.52259H36.6562C36.7028 3.52259 37.1872 3.49463 37.5412 3.81148C37.7741 4.02582 37.8859 4.34266 37.8859 4.7527V8.61076C37.8859 9.01148 37.7741 9.32833 37.5412 9.54266C37.1779 9.86883 36.6841 9.83155 36.6562 9.83155H33.1533C33.1533 9.83155 33.1347 9.83155 33.0974 9.83155ZM33.1067 3.61578C32.967 3.61578 32.6036 3.63442 32.3428 3.88603C32.1285 4.07241 32.026 4.37062 32.026 4.7527V8.61076C32.026 8.98352 32.1285 9.28173 32.3428 9.47743C32.6688 9.77564 33.144 9.73836 33.1533 9.73836H36.6655C36.6748 9.73836 37.1499 9.77564 37.476 9.47743C37.6903 9.28173 37.7927 8.98352 37.7927 8.61076V4.7527C37.7927 4.37062 37.6903 4.07241 37.476 3.88603C37.1499 3.57851 36.6748 3.61578 36.6655 3.61578H33.1533C33.1533 3.61578 33.1378 3.61578 33.1067 3.61578Z" fill="#5F6062"/>
<g style="mix-blend-mode:screen">
<path d="M37.6624 4.87395C37.6624 5.19079 37.6624 5.52627 37.6624 5.85244C37.6624 6.73774 37.6624 7.5019 37.6624 7.5019C37.6624 7.82807 37.6624 8.16355 37.6624 8.48972C37.6624 9.69187 36.5537 9.59868 36.5537 9.59868H36.032H33.7868H33.2651C33.2651 9.59868 32.1565 9.69187 32.1565 8.48972C32.1565 8.16355 32.1565 7.82807 32.1565 7.5019C32.1565 7.5019 32.1565 6.73774 32.1565 5.85244C32.1565 5.52627 32.1565 5.19079 32.1565 4.87395C32.1565 3.67179 33.2651 3.76498 33.2651 3.76498H33.7868H36.032H36.5537C36.5537 3.76498 37.6624 3.67179 37.6624 4.87395Z" fill="#7A7A7D"/>
</g>
<path d="M37.4947 4.95773C37.4947 5.26526 37.4947 5.5821 37.4947 5.88031C37.4947 6.7097 37.4947 7.43658 37.4947 7.43658C37.4947 7.74411 37.4947 8.06096 37.4947 8.35917C37.4947 9.48676 36.4513 9.40289 36.4513 9.40289H35.9575H33.8614H33.3676C33.3676 9.40289 32.3242 9.48676 32.3242 8.35917C32.3242 8.06096 32.3242 7.74411 32.3242 7.43658C32.3242 7.43658 32.3242 6.7097 32.3242 5.88031C32.3242 5.5821 32.3242 5.26526 32.3242 4.95773C32.3242 3.83013 33.3676 3.92332 33.3676 3.92332H33.8614H35.9575H36.4513C36.4513 3.92332 37.4947 3.83013 37.4947 4.95773Z" fill="#7A7A7D"/>
<path fill-rule="evenodd" clip-rule="evenodd" d="M33.3117 9.44953C33.1719 9.44953 32.8459 9.42157 32.585 9.18859C32.3801 9.00221 32.2776 8.72264 32.2776 8.3592V4.95777C32.2776 4.59433 32.3801 4.31476 32.585 4.12838C32.9018 3.83949 33.3489 3.86745 33.3676 3.87677H36.4512C36.4885 3.86745 36.9171 3.84881 37.2338 4.12838C37.4388 4.31476 37.5412 4.59433 37.5412 4.95777V8.3592C37.5412 8.72264 37.4388 9.00221 37.2338 9.18859C36.9171 9.4868 36.4699 9.44953 36.4512 9.44953H33.3676C33.3614 9.44953 33.3427 9.44953 33.3117 9.44953ZM33.321 3.96064C33.1999 3.96064 32.8831 3.98859 32.6502 4.20293C32.4639 4.37067 32.3707 4.62229 32.3707 4.95777V8.3592C32.3707 8.69469 32.4639 8.95562 32.6502 9.12336C32.939 9.38429 33.3583 9.35634 33.3583 9.35634H36.4512C36.4606 9.35634 36.8798 9.38429 37.1686 9.12336C37.3549 8.95562 37.4481 8.69469 37.4481 8.3592V4.95777C37.4481 4.62229 37.3549 4.37067 37.1686 4.19361C36.8798 3.93268 36.4606 3.96064 36.4606 3.96064H36.4512H33.3676C33.3614 3.96064 33.3458 3.96064 33.321 3.96064Z" fill="#48494B"/>
<g style="mix-blend-mode:multiply">
<path fill-rule="evenodd" clip-rule="evenodd" d="M37.4947 4.95773C37.4947 5.26526 37.4947 5.5821 37.4947 5.88031C37.4947 6.7097 37.4947 7.43658 37.4947 7.43658C37.4947 7.74411 37.4947 8.06096 37.4947 8.35917C37.4947 9.48676 36.4513 9.40289 36.4513 9.40289H33.3676C33.3676 9.40289 32.3242 9.48676 32.3242 8.35917C32.3242 8.06096 32.3242 7.74411 32.3242 7.43658C32.3242 7.43658 32.3242 6.7097 32.3242 5.88031C32.3242 5.5821 32.3242 5.26526 32.3242 4.95773C32.3242 3.83013 33.3676 3.92332 33.3676 3.92332H36.4513C36.4513 3.92332 37.4947 3.83013 37.4947 4.95773ZM37.1873 5.16275C37.1873 4.16562 36.2743 4.24949 36.2743 4.24949H33.5446C33.5446 4.24949 32.6317 4.16562 32.6317 5.16275C32.6317 5.433 32.6317 5.71257 32.6317 5.9735C32.6317 6.7097 32.6317 7.34339 32.6317 7.34339C32.6317 7.61365 32.6317 7.89322 32.6317 8.15415C32.6317 9.15128 33.5446 9.07673 33.5446 9.07673H36.2743C36.2743 9.07673 37.1873 9.15128 37.1873 8.15415C37.1873 7.89322 37.1873 7.61365 37.1873 7.34339C37.1873 7.34339 37.1873 6.7097 37.1873 5.9735C37.1873 5.71257 37.1873 5.433 37.1873 5.16275Z" fill="#7A7A7D"/>
</g>
<path d="M44.8358 4.75271C44.8358 5.0882 44.8358 5.45164 44.8358 5.79644C44.8358 6.73766 44.8358 7.55773 44.8358 7.55773C44.8358 7.90253 44.8358 8.26597 44.8358 8.61078C44.8358 9.88748 43.6526 9.78497 43.6526 9.78497H43.0936H40.7087H40.1497C40.1497 9.78497 38.9666 9.88748 38.9666 8.61078C38.9666 8.26597 38.9666 7.90253 38.9666 7.55773C38.9666 7.55773 38.9666 6.73766 38.9666 5.79644C38.9666 5.45164 38.9666 5.0882 38.9666 4.75271C38.9666 3.46669 40.1497 3.5692 40.1497 3.5692H40.7087H43.0936H43.6526C43.6526 3.5692 44.8358 3.46669 44.8358 4.75271Z" fill="#7A7A7D"/>
<path fill-rule="evenodd" clip-rule="evenodd" d="M40.0844 9.83155C39.9354 9.83155 39.5627 9.8036 39.2739 9.54266C39.041 9.32833 38.9199 9.01148 38.9199 8.61076V4.7527C38.9199 4.34266 39.041 4.02582 39.2739 3.81148C39.628 3.48532 40.131 3.52259 40.1497 3.52259H43.6526C43.6898 3.52259 44.1836 3.49463 44.5283 3.81148C44.7612 4.02582 44.8823 4.34266 44.8823 4.7527V8.61076C44.8823 9.01148 44.7612 9.32833 44.5283 9.54266C44.1743 9.86883 43.6712 9.83155 43.6526 9.83155H40.1497C40.1497 9.83155 40.1217 9.83155 40.0844 9.83155ZM40.0938 3.61578C39.954 3.61578 39.6 3.63442 39.3298 3.88603C39.1249 4.07241 39.0131 4.37062 39.0131 4.7527V8.61076C39.0131 8.98352 39.1249 9.28173 39.3298 9.47743C39.6652 9.77564 40.1403 9.73836 40.1403 9.73836H43.6526C43.6619 9.73836 44.137 9.77564 44.4724 9.47743C44.6773 9.28173 44.7891 8.98352 44.7891 8.61076V4.7527C44.7891 4.37062 44.6773 4.07241 44.4724 3.88603C44.137 3.57851 43.6619 3.61578 43.6619 3.61578H43.6526H40.1497C40.1497 3.61578 40.131 3.61578 40.0938 3.61578Z" fill="#5F6062"/>
<g style="mix-blend-mode:screen">
<path d="M44.6494 4.87395C44.6494 5.19079 44.6494 5.52627 44.6494 5.85244C44.6494 6.73774 44.6494 7.5019 44.6494 7.5019C44.6494 7.82807 44.6494 8.16355 44.6494 8.48972C44.6494 9.69187 43.5501 9.59868 43.5501 9.59868H43.0191H40.7832H40.2615C40.2615 9.59868 39.1528 9.69187 39.1528 8.48972C39.1528 8.16355 39.1528 7.82807 39.1528 7.5019C39.1528 7.5019 39.1528 6.73774 39.1528 5.85244C39.1528 5.52627 39.1528 5.19079 39.1528 4.87395C39.1528 3.67179 40.2615 3.76498 40.2615 3.76498H40.7832H43.0191H43.5501C43.5501 3.76498 44.6494 3.67179 44.6494 4.87395Z" fill="#7A7A7D"/>
</g>
<path d="M44.4911 4.95773C44.4911 5.26526 44.4911 5.5821 44.4911 5.88031C44.4911 6.7097 44.4911 7.43658 44.4911 7.43658C44.4911 7.74411 44.4911 8.06096 44.4911 8.35917C44.4911 9.48676 43.4477 9.40289 43.4477 9.40289H42.9539H40.8485H40.3547C40.3547 9.40289 39.3113 9.48676 39.3113 8.35917C39.3113 8.06096 39.3113 7.74411 39.3113 7.43658C39.3113 7.43658 39.3113 6.7097 39.3113 5.88031C39.3113 5.5821 39.3113 5.26526 39.3113 4.95773C39.3113 3.83013 40.3547 3.92332 40.3547 3.92332H40.8485H42.9539H43.4477C43.4477 3.92332 44.4911 3.83013 44.4911 4.95773Z" fill="#7A7A7D"/>
<path fill-rule="evenodd" clip-rule="evenodd" d="M40.2987 9.44953C40.1683 9.44953 39.8329 9.42157 39.5814 9.18859C39.3764 9.00221 39.2646 8.72264 39.2646 8.3592V4.95777C39.2646 4.59433 39.3764 4.31476 39.5814 4.12838C39.8981 3.83949 40.3453 3.86745 40.364 3.87677H43.4476C43.4849 3.86745 43.9134 3.84881 44.2209 4.12838C44.4258 4.31476 44.5376 4.59433 44.5376 4.95777V8.3592C44.5376 8.72264 44.4258 9.00221 44.2209 9.18859C43.9041 9.4868 43.4663 9.44953 43.4383 9.44953H40.3546C40.3546 9.44953 40.336 9.44953 40.2987 9.44953ZM40.3081 3.96064C40.187 3.96064 39.8702 3.98859 39.6373 4.20293C39.451 4.37067 39.3578 4.62229 39.3578 4.95777V8.3592C39.3578 8.69469 39.451 8.95562 39.6373 9.12336C39.9261 9.38429 40.3453 9.35634 40.3546 9.35634H43.4476C43.4569 9.35634 43.8762 9.38429 44.165 9.12336C44.3513 8.95562 44.4445 8.69469 44.4445 8.3592V4.95777C44.4445 4.62229 44.3513 4.37067 44.165 4.19361C43.8762 3.93268 43.4569 3.96064 43.4476 3.96064H40.3546C40.3546 3.96064 40.3391 3.96064 40.3081 3.96064Z" fill="#48494B"/>
<g style="mix-blend-mode:multiply">
<path fill-rule="evenodd" clip-rule="evenodd" d="M44.4911 4.95773C44.4911 5.26526 44.4911 5.5821 44.4911 5.88031C44.4911 6.7097 44.4911 7.43658 44.4911 7.43658C44.4911 7.74411 44.4911 8.06096 44.4911 8.35917C44.4911 9.48676 43.4477 9.40289 43.4477 9.40289H40.3547C40.3547 9.40289 39.3113 9.48676 39.3113 8.35917C39.3113 8.06096 39.3113 7.74411 39.3113 7.43658C39.3113 7.43658 39.3113 6.7097 39.3113 5.88031C39.3113 5.5821 39.3113 5.26526 39.3113 4.95773C39.3113 3.83013 40.3547 3.92332 40.3547 3.92332H43.4477C43.4477 3.92332 44.4911 3.83013 44.4911 4.95773ZM44.1836 5.16275C44.1836 4.16562 43.2613 4.24949 43.2613 4.24949H40.541C40.541 4.24949 39.6187 4.16562 39.6187 5.16275C39.6187 5.433 39.6187 5.71257 39.6187 5.9735C39.6187 6.7097 39.6187 7.34339 39.6187 7.34339C39.6187 7.61365 39.6187 7.89322 39.6187 8.15415C39.6187 9.15128 40.541 9.07673 40.541 9.07673H43.2613C43.2613 9.07673 44.1836 9.15128 44.1836 8.15415C44.1836 7.89322 44.1836 7.61365 44.1836 7.34339C44.1836 7.34339 44.1836 6.7097 44.1836 5.9735C44.1836 5.71257 44.1836 5.433 44.1836 5.16275Z" fill="#7A7A7D"/>
</g>
<path d="M4.62715 8.89038L8.32568 3.95131C8.76354 3.39217 9.78832 3.49468 9.78832 3.49468L15.7321 3.56924C17.1481 3.66243 16.9152 4.70615 16.9152 4.70615V8.76923C16.9152 9.85956 15.8718 9.80364 15.8718 9.80364H4.58057C3.83527 9.80364 4.62715 8.89038 4.62715 8.89038Z" fill="#7A7A7D"/>
<path fill-rule="evenodd" clip-rule="evenodd" d="M15.8997 9.85028C15.8811 9.85028 15.8717 9.85028 15.8717 9.85028H4.58051C4.4004 9.85028 4.2855 9.80058 4.23581 9.70118C4.1147 9.42161 4.54325 8.91838 4.59915 8.86247L8.28836 3.9234C8.74485 3.34562 9.751 3.44813 9.78827 3.44813L15.732 3.52268C16.2351 3.55064 16.5891 3.70906 16.794 3.97932C17.0363 4.29616 16.9711 4.6596 16.9617 4.71552V8.76928C16.9617 9.11408 16.8593 9.38433 16.6636 9.57071C16.3841 9.83165 16.0115 9.85028 15.8997 9.85028ZM9.60194 3.532C9.28519 3.532 8.67032 3.58792 8.36289 3.97932L4.66436 8.91838C4.54325 9.05817 4.23581 9.47752 4.31966 9.6639C4.35071 9.72603 4.43767 9.75709 4.58051 9.75709H15.8717C15.8811 9.76641 16.3096 9.78505 16.5984 9.50548C16.7754 9.33774 16.8686 9.08613 16.8686 8.76928V4.69688C16.8686 4.69688 16.9431 4.33344 16.7195 4.02591C16.5332 3.78362 16.1978 3.64383 15.732 3.61587L9.78827 3.54132C9.77895 3.54132 9.71374 3.532 9.60194 3.532Z" fill="#5F6062"/>
<g style="mix-blend-mode:screen">
<path d="M4.98117 8.73193L8.48406 4.07243C8.90329 3.54124 9.87217 3.64375 9.87217 3.64375L15.5085 3.70899C16.85 3.79286 16.6264 4.78067 16.6264 4.78067V8.6201C16.6264 9.65451 15.6389 9.69178 15.6389 9.69178H5.0557C4.34767 9.69178 4.98117 8.73193 4.98117 8.73193Z" fill="#7A7A7D"/>
</g>
<path d="M5.16753 8.73197L8.58657 4.16566C9.22007 3.67175 9.85357 3.81154 9.85357 3.81154H15.4247C16.7289 3.89541 16.5147 4.86458 16.5147 4.86458V8.62014C16.5147 9.63591 15.5551 9.58 15.5551 9.58H5.12094C4.43155 9.58 5.16753 8.73197 5.16753 8.73197Z" fill="#7A7A7D"/>
<g style="mix-blend-mode:multiply">
<path fill-rule="evenodd" clip-rule="evenodd" d="M16.5147 4.86458V8.62014C16.5147 9.63591 15.5551 9.58 15.5551 9.58H5.12094C4.43155 9.58 5.16753 8.73197 5.16753 8.73197L8.58657 4.16566C9.22007 3.67175 9.85357 3.81154 9.85357 3.81154H15.4247C16.7289 3.89541 16.5147 4.86458 16.5147 4.86458ZM15.2011 4.11906H10.0865C10.0865 4.11906 9.49956 3.99792 8.92195 4.44523L5.78239 8.6015C5.78239 8.6015 5.11163 9.37498 5.74513 9.37498H15.3129C15.3129 9.37498 16.1979 9.42157 16.1979 8.49899V5.07892C16.1979 5.07892 16.3935 4.20293 15.2011 4.11906Z" fill="#7A7A7D"/>
</g>
<path d="M3.45327 16.9047C3.45327 17.8926 3.10857 18.694 2.68002 18.694C2.24216 18.694 1.89746 17.8926 1.89746 16.9047C1.89746 15.9169 2.24216 15.1248 2.68002 15.1248C3.10857 15.1248 3.45327 15.9169 3.45327 16.9047Z" fill="#5F6163"/>
<path fill-rule="evenodd" clip-rule="evenodd" d="M2.67997 18.7406C2.21416 18.7406 1.85083 17.9392 1.85083 16.9048C1.85083 15.8797 2.21416 15.0782 2.67997 15.0782C3.13647 15.0782 3.4998 15.8797 3.4998 16.9048C3.4998 17.9392 3.13647 18.7406 2.67997 18.7406ZM2.67997 15.1714C2.27938 15.1714 1.94399 15.9636 1.94399 16.9048C1.94399 17.8553 2.27938 18.6474 2.67997 18.6474C3.07125 18.6474 3.41595 17.8553 3.41595 16.9048C3.41595 15.9636 3.07125 15.1714 2.67997 15.1714Z" fill="#434445"/>
<g style="mix-blend-mode:multiply">
<path d="M3.44395 17.2868C3.36942 18.0883 3.05267 18.694 2.68002 18.694C2.24216 18.694 1.89746 17.8926 1.89746 16.9047C1.89746 15.9356 2.23284 15.1435 2.66139 15.1248C2.89429 15.3019 3.02472 15.6187 3.11788 15.8797C3.27626 16.327 3.39737 16.8022 3.44395 17.2868Z" fill="#5F6163"/>
</g>
<path d="M3.13652 16.942C3.13652 17.9111 2.86635 18.6939 2.52165 18.6939C2.17695 18.6939 1.89746 17.9111 1.89746 16.942C1.89746 15.9635 2.17695 15.1807 2.52165 15.1807C2.86635 15.1807 3.13652 15.9635 3.13652 16.942Z" fill="#828487"/>
<path fill-rule="evenodd" clip-rule="evenodd" d="M2.5216 18.7405C2.13963 18.7405 1.85083 17.9484 1.85083 16.942C1.85083 15.9262 2.13963 15.1341 2.5216 15.1341C2.89424 15.1341 3.18305 15.9262 3.18305 16.942C3.18305 17.9484 2.89424 18.7405 2.5216 18.7405ZM2.5216 15.2273C2.24211 15.2273 1.94399 15.9169 1.94399 16.942C1.94399 17.9578 2.24211 18.6474 2.5216 18.6474C2.80108 18.6474 3.0992 17.9578 3.0992 16.942C3.0992 15.9169 2.80108 15.2273 2.5216 15.2273Z" fill="#434445"/>
<path d="M2.93164 16.942C2.93164 17.7527 2.78258 18.4796 2.40994 18.4796C2.03729 18.4796 1.7019 17.6968 1.7019 16.8768C1.7019 16.066 2.00934 15.4044 2.38199 15.4044C2.76395 15.4044 2.93164 16.1219 2.93164 16.942Z" fill="#E9A756"/>
<path fill-rule="evenodd" clip-rule="evenodd" d="M2.40989 18.5262C2.00929 18.5262 1.65527 17.7528 1.65527 16.8768C1.65527 16.0288 1.98134 15.3578 2.38194 15.3578C2.52168 15.3578 2.97817 15.4696 2.97817 16.942C2.97817 17.4173 2.92228 18.5262 2.40989 18.5262ZM2.38194 15.451C2.03724 15.451 1.74844 16.1033 1.74844 16.8768C1.74844 17.6782 2.0745 18.4331 2.40989 18.4331C2.708 18.4331 2.88501 17.8739 2.88501 16.942C2.88501 16.0288 2.68937 15.451 2.38194 15.451Z" fill="#B96E14"/>
<path d="M2.5495 15.8796C2.5495 16.1685 2.44702 16.4667 2.30727 16.7183C2.26069 16.8115 2.16753 16.9513 2.04642 16.942C1.91599 16.942 1.86941 16.7835 1.8601 16.6717C1.84146 16.4574 1.88805 16.2244 1.95326 16.0194C1.99052 15.9076 2.0371 15.7957 2.10232 15.7119C2.13027 15.6746 2.15822 15.6373 2.19548 15.6094C2.25138 15.5441 2.31659 15.4975 2.39112 15.5162C2.53086 15.5348 2.5495 15.7678 2.5495 15.8796Z" fill="white"/>
<path opacity="0.5" d="M47.2208 12.0775H18.0797C17.8375 12.0775 17.6418 11.8818 17.6418 11.6395C17.6418 11.3879 17.8375 11.1922 18.0797 11.1922H47.2021C47.2021 11.4904 47.2021 11.7886 47.2208 12.0775Z" fill="#7A7A7D"/>
<path d="M1.49682 21.0143H4.05877C4.05877 21.0143 4.55253 21.0796 4.59911 21.4617C4.64569 21.8531 4.59911 22.4681 4.59911 22.4681C4.59911 22.4681 4.67364 22.7943 4.27304 22.7943H1.78562C1.78562 22.7943 1.05896 22.7943 1.02169 22.3563V21.3871C1.02169 21.3871 0.909897 21.0143 1.49682 21.0143Z" fill="#CBCCCE"/>
<path fill-rule="evenodd" clip-rule="evenodd" d="M4.27304 22.8408H1.78562C1.75767 22.8408 1.02169 22.8315 0.984425 22.3562V21.3871C0.975109 21.3591 0.94716 21.238 1.03101 21.1355C1.11175 21.0236 1.26702 20.9677 1.49682 20.9677H4.05877C4.08672 20.9677 4.59911 21.0423 4.64569 21.4616C4.68296 21.8251 4.64569 22.4028 4.64569 22.4681C4.64569 22.496 4.66432 22.6265 4.58048 22.7197C4.51837 22.8004 4.41589 22.8408 4.27304 22.8408ZM4.04945 21.0609H1.49682C1.30118 21.0609 1.16143 21.0982 1.10554 21.182C1.04032 21.2659 1.06827 21.3684 1.06827 21.3684V21.3871V22.3562C1.10554 22.7383 1.78562 22.7476 1.78562 22.7476H4.27304C4.38484 22.7476 4.46558 22.7197 4.51526 22.6638C4.57116 22.5892 4.55253 22.4774 4.55253 22.4774V22.4681C4.55253 22.4588 4.59911 21.8437 4.55253 21.4709C4.51526 21.1261 4.04945 21.0609 4.04945 21.0609Z" fill="#9DA0A8"/>
<g style="mix-blend-mode:multiply">
<path d="M4.59915 22.4682C4.59915 22.4682 4.67368 22.7944 4.27308 22.7944H1.78566C1.78566 22.7944 1.05899 22.7944 1.02173 22.3564V21.8252H4.61778C4.61778 22.1514 4.59915 22.4682 4.59915 22.4682Z" fill="#CBCCCE"/>
</g>
<path d="M2.68927 22.0208C2.54021 22.0301 2.53089 21.8903 2.53089 21.8903C2.53089 21.8903 2.40046 21.2566 2.23277 20.9863C2.0744 20.7161 1.3291 20.8466 1.13346 20.8186C0.93782 20.7813 0.835342 20.8932 0.816709 20.5297C0.798077 20.157 0.956452 20.157 0.956452 20.157H2.03713C2.67063 20.129 2.63337 20.4458 2.63337 20.4458L2.84764 21.7039C2.89422 22.0114 2.82901 22.0114 2.68927 22.0208Z" fill="#CBCCCE"/>
<path fill-rule="evenodd" clip-rule="evenodd" d="M2.6707 22.0674C2.62102 22.0674 2.58065 22.0519 2.54959 22.0208C2.4937 21.9742 2.48438 21.8997 2.48438 21.8903C2.48438 21.8903 2.35395 21.2753 2.19558 21.0144C2.0931 20.8373 1.66456 20.8559 1.38507 20.8653C1.27328 20.8653 1.18943 20.8653 1.13353 20.8559C1.08695 20.8559 1.04969 20.8559 1.02174 20.8559C0.863362 20.8559 0.788833 20.828 0.770201 20.5298C0.757779 20.3558 0.785727 20.2347 0.854046 20.1663C0.900627 20.1197 0.956524 20.1197 0.956524 20.1104H2.0372C2.30737 20.1011 2.50301 20.1477 2.60549 20.2595C2.6707 20.3341 2.68002 20.4179 2.68002 20.4459L2.89429 21.704C2.92224 21.8717 2.91293 21.9556 2.87566 22.0022C2.8384 22.0581 2.77318 22.0581 2.69865 22.0674H2.68934C2.68313 22.0674 2.67692 22.0674 2.6707 22.0674ZM1.61797 20.7627C1.88814 20.7627 2.16763 20.8 2.27011 20.9678C2.4378 21.238 2.56823 21.8531 2.57754 21.881C2.57754 21.909 2.58686 21.9835 2.68002 21.9742H2.68934C2.75455 21.9742 2.79182 21.9649 2.80113 21.9463C2.82908 21.909 2.81045 21.7599 2.80113 21.7133L2.58686 20.4459C2.58686 20.4366 2.58686 20.3807 2.53096 20.3154C2.47506 20.2595 2.34464 20.1943 2.0372 20.2036H0.956524C0.956524 20.2036 0.84473 20.2222 0.863362 20.5298C0.872679 20.7627 0.909943 20.7627 1.01242 20.7627C1.04969 20.7627 1.09627 20.7627 1.14285 20.7721C1.18943 20.7814 1.28259 20.7721 1.38507 20.7721C1.4596 20.7721 1.54344 20.7627 1.61797 20.7627Z" fill="#9DA0A8"/>
<path d="M1.2174 19.5699C1.2174 19.5699 1.04971 20.4086 1.06834 21.2939C1.06834 21.2939 1.09629 21.7785 1.06834 22.0581C1.04039 22.3376 0.555947 22.4029 0.546631 21.4896C0.546631 20.5857 0.546631 19.8402 0.546631 19.8402C0.546631 19.8402 0.611844 19.1599 0.844749 19.1133C1.06834 19.0574 1.2174 19.0667 1.2174 19.5699Z" fill="#CBCCCE"/>
<path fill-rule="evenodd" clip-rule="evenodd" d="M0.881964 22.2911C0.881964 22.2911 0.878859 22.2911 0.872648 22.2911C0.69564 22.2818 0.509316 22.0675 0.5 21.4897C0.5 20.5951 0.5 19.8402 0.5 19.8402C0.509316 19.7563 0.57453 19.1226 0.835383 19.0667C0.937861 19.0388 1.04966 19.0295 1.1335 19.0947C1.22666 19.1599 1.26393 19.309 1.26393 19.57V19.5793C1.26393 19.5886 1.09624 20.418 1.11487 21.294C1.11487 21.3126 1.14282 21.7879 1.11487 22.0675C1.09624 22.1979 1.00307 22.2911 0.881964 22.2911ZM0.984442 19.1413C0.947177 19.1413 0.903702 19.1475 0.854015 19.1599C0.704956 19.1879 0.621111 19.5979 0.593162 19.8402C0.593162 19.8495 0.583846 20.5951 0.593162 21.4897C0.602478 22.0395 0.77017 22.1979 0.881964 22.1979C0.947177 22.2072 1.01239 22.142 1.02171 22.0581C1.04966 21.7879 1.02171 21.3033 1.02171 21.294C1.00307 20.4459 1.16145 19.6352 1.17077 19.57C1.17077 19.3463 1.14282 19.2158 1.0776 19.1599C1.05276 19.1413 1.02171 19.1351 0.984442 19.1413Z" fill="#9DA0A8"/>
<g style="mix-blend-mode:multiply">
<path d="M1.04029 19.0947C1.15208 19.1226 1.21729 19.2345 1.21729 19.5699C1.21729 19.5699 1.0496 20.4086 1.06824 21.2939C1.06824 21.2939 1.09618 21.7785 1.06824 22.0581C1.06202 22.0954 1.05271 22.1264 1.04029 22.1513C0.975074 21.3499 0.90986 20.5484 0.965758 19.7377C0.98439 19.5264 1.00923 19.3121 1.04029 19.0947Z" fill="#CBCCCE"/>
</g>
<path d="M7.46851 2.91689L8.16722 1.84521C9.63918 -0.139738 11.8564 0.0373224 11.8564 0.0373224H44.2861C45.5997 0.279616 46.0003 3.27101 46.0003 3.27101L7.46851 2.91689Z" fill="#FDFCEA"/>
<path fill-rule="evenodd" clip-rule="evenodd" d="M46.047 3.31762H46.0004L7.38477 2.96349L8.13006 1.81726C9.5927 -0.167689 11.8379 -0.00926627 11.8565 -0.00926627H44.2862C44.8638 0.102562 45.3203 0.68034 45.6743 1.73339C45.9352 2.50686 46.0377 3.2617 46.0377 3.2617L46.047 3.31762ZM7.55246 2.87962L45.9445 3.23374C45.8886 2.83303 45.4507 0.30758 44.2862 0.0932427H11.8565C11.8286 0.0839237 9.63929 -0.0651801 8.21391 1.87317L7.55246 2.87962Z" fill="#B2B4AA"/>
<path d="M7.46851 2.91689L8.16722 1.84521C9.63918 -0.139738 11.8564 0.0373224 11.8564 0.0373224H44.2861C45.5997 0.279616 46.0003 3.27101 46.0003 3.27101L7.46851 2.91689Z" fill="#FDFCEA"/>
<path fill-rule="evenodd" clip-rule="evenodd" d="M46.047 3.31762H46.0004L7.38477 2.96349L8.13006 1.81726C9.5927 -0.167689 11.8379 -0.00926627 11.8565 -0.00926627H44.2862C44.8638 0.102562 45.3203 0.68034 45.6743 1.73339C45.9352 2.50686 46.0377 3.2617 46.0377 3.2617L46.047 3.31762ZM7.55246 2.87962L45.9445 3.23374C45.8886 2.83303 45.4507 0.30758 44.2862 0.0932427H11.8565C11.8286 0.0839237 9.63929 -0.0651801 8.21391 1.87317L7.55246 2.87962Z" fill="#B2B4AA"/>
<g style="mix-blend-mode:multiply" opacity="0.3">
<path fill-rule="evenodd" clip-rule="evenodd" d="M46.0003 3.27101L7.46851 2.91689L8.16722 1.84521C9.63918 -0.139738 11.8564 0.0373224 11.8564 0.0373224H44.2861C45.5997 0.279616 46.0003 3.27101 46.0003 3.27101ZM34.2712 2.29252C34.2712 2.29252 34.2153 0.438039 33.5445 0.400763C32.8738 0.372806 13.3284 0.400763 13.3284 0.400763H12.0148C12.0148 0.400763 10.3472 0.400763 9.74166 1.09969L8.85662 2.29252H34.2712Z" fill="#7A7A7D"/>
</g>
<path d="M9.67652 1.50037C9.67652 1.50037 10.2075 0.689617 11.2603 0.624384H26.9581C26.9581 0.624384 27.2655 0.605746 27.1071 0.726893C26.9394 0.84804 11.6236 1.06238 11.6236 1.06238C11.6236 1.06238 11.2323 1.05306 10.841 1.50037C10.4498 1.94768 9.16413 2.22725 9.67652 1.50037Z" fill="white"/>
<g style="mix-blend-mode:multiply" opacity="0.3">
<path d="M46.0002 3.27104L40.3453 3.22445C41.2303 3.08466 40.8949 2.29255 40.8949 2.29255C40.8949 2.29255 40.5037 1.40725 40.3173 0.857425C40.131 0.316923 39.1528 0.391475 39.1528 0.391475L34.709 0.0373535H44.286C45.5996 0.279647 46.0002 3.27104 46.0002 3.27104Z" fill="#7A7A7D"/>
</g>
<path d="M3.63946 11.3133C3.63946 11.6301 3.51835 11.8817 3.36929 11.8817C3.22023 11.8817 3.09912 11.6301 3.09912 11.3133C3.09912 10.9964 3.22023 10.7448 3.36929 10.7448C3.51835 10.7448 3.63946 10.9964 3.63946 11.3133Z" fill="#5F6163"/>
<path fill-rule="evenodd" clip-rule="evenodd" d="M3.36949 11.9283C3.19248 11.9283 3.05273 11.6581 3.05273 11.3133C3.05273 10.9685 3.19248 10.6982 3.36949 10.6982C3.54649 10.6982 3.68624 10.9685 3.68624 11.3133C3.68624 11.6581 3.54649 11.9283 3.36949 11.9283ZM3.36949 10.7914C3.25769 10.7914 3.1459 11.0058 3.1459 11.3133C3.1459 11.6208 3.25769 11.8445 3.36949 11.8445C3.47196 11.8445 3.59307 11.6208 3.59307 11.3133C3.59307 11.0058 3.47196 10.7914 3.36949 10.7914Z" fill="#434445"/>
<path d="M4.3475 8.88099C4.46861 9.9154 4.39408 10.7727 4.18912 10.8007C3.97485 10.8287 3.70468 10.0086 3.58357 8.97418C3.45314 7.93977 3.52767 7.0731 3.74195 7.05447C3.95622 7.02651 4.22639 7.84658 4.3475 8.88099Z" fill="#A7A9AB"/>
<path fill-rule="evenodd" clip-rule="evenodd" d="M4.17984 10.8473C3.90035 10.8473 3.64882 9.91544 3.53702 8.97422C3.47181 8.471 3.46249 7.99573 3.49044 7.63229C3.51839 7.23157 3.60224 7.02655 3.73266 7.00792C3.86309 6.99549 3.99352 7.17876 4.12394 7.55774C4.23574 7.90254 4.3289 8.36849 4.39411 8.87172C4.45001 9.37494 4.46864 9.85953 4.44069 10.223C4.40343 10.6237 4.31958 10.8287 4.18916 10.8473C4.18916 10.8473 4.18605 10.8473 4.17984 10.8473ZM3.7513 7.10111C3.7513 7.10111 3.74819 7.10111 3.74198 7.10111C3.68608 7.10111 3.61155 7.25021 3.5836 7.64161C3.54634 7.99573 3.56497 8.471 3.63018 8.96491C3.76061 10.1018 4.0401 10.7728 4.17984 10.7542C4.23574 10.7448 4.31027 10.605 4.34753 10.2137C4.37548 9.85953 4.35685 9.38426 4.30095 8.89035C4.24505 8.38713 4.15189 7.9305 4.03078 7.58569C3.91899 7.22225 3.80719 7.10111 3.7513 7.10111Z" fill="#A0A09F"/>
<path d="M4.1333 8.90908C4.26373 9.94349 4.2451 10.8008 4.09604 10.8195C3.95629 10.8288 3.74202 10.0087 3.62091 8.97432C3.49049 7.93991 3.50912 7.08256 3.65818 7.06392C3.79792 7.0546 4.01219 7.87467 4.1333 8.90908Z" fill="#C7C8CA"/>
<path fill-rule="evenodd" clip-rule="evenodd" d="M4.09607 10.866C3.79795 10.866 3.58368 9.05807 3.57436 8.9742C3.50915 8.47098 3.4812 7.99571 3.49052 7.64158C3.49983 7.1104 3.58368 7.02653 3.64889 7.01721C3.64889 7.01721 3.652 7.01721 3.65821 7.01721C3.95633 7.01721 4.1706 8.8251 4.17992 8.90897C4.24513 9.41219 4.27308 9.88746 4.26376 10.2416C4.25444 10.7728 4.1706 10.8566 4.10539 10.866C4.10539 10.866 4.10228 10.866 4.09607 10.866ZM3.65821 7.1104C3.58368 7.157 3.52778 7.80933 3.66752 8.96488C3.79795 10.1298 4.01222 10.7448 4.09607 10.7728C4.1706 10.7262 4.2265 10.0738 4.08675 8.91829C3.95633 7.75341 3.74205 7.13836 3.65821 7.1104Z" fill="#A0A09F"/>
<path d="M2.95011 9.5148L3.39729 11.0804C3.39107 11.1052 3.38486 11.1301 3.37865 11.1549C3.36934 11.2015 3.3507 11.2481 3.32276 11.2854C3.30412 11.3134 3.30412 11.3227 3.28549 11.3413C3.27928 11.3475 3.27307 11.3537 3.26686 11.36C3.26686 11.36 3.26375 11.36 3.25754 11.36C3.25754 11.3662 3.25444 11.3693 3.24823 11.3693C3.12712 10.9872 2.7731 9.87824 2.7172 9.5148C2.64267 9.06749 3.03395 9.03953 3.03395 9.03953L3.77925 8.8252C3.79167 8.85005 3.80099 8.8749 3.8072 8.89975C3.8072 8.93081 3.8072 8.96498 3.8072 9.00226C3.65814 9.04885 3.24823 9.17932 3.08985 9.24455C2.88489 9.32842 2.95011 9.5148 2.95011 9.5148Z" fill="#C7C8CA"/>
<path fill-rule="evenodd" clip-rule="evenodd" d="M3.22035 11.4344L3.20172 11.3878C3.06197 10.9405 2.72659 9.87813 2.67069 9.51468C2.64585 9.35937 2.67069 9.23511 2.74522 9.14192C2.83838 9.02078 2.98744 9.00214 3.02471 8.99282L3.80727 8.76917L3.8259 8.80644C3.83211 8.8375 3.83832 8.86546 3.84453 8.89031C3.85074 8.92138 3.85385 8.95865 3.85385 9.00214V9.03942L3.8259 9.04873C3.65821 9.09533 3.26693 9.2258 3.10855 9.28171C2.95018 9.34694 2.98744 9.48673 2.98744 9.49605L3.44394 11.0803V11.0896C3.43773 11.1144 3.43152 11.1393 3.42531 11.1641C3.40667 11.2294 3.38804 11.2667 3.36009 11.3133C3.35078 11.3412 3.34146 11.3505 3.32283 11.3692C3.31662 11.3754 3.3073 11.3816 3.29488 11.3878V11.3971H3.28556C3.27935 11.4033 3.27625 11.4064 3.27625 11.4064L3.22035 11.4344ZM3.74206 8.88099L3.03402 9.08601C3.02471 9.08601 2.89428 9.09533 2.81044 9.19784C2.75454 9.27239 2.73591 9.3749 2.75454 9.50537C2.81044 9.85017 3.1365 10.8753 3.26693 11.2853C3.26693 11.2791 3.27004 11.2729 3.27625 11.2667C3.29488 11.2294 3.31351 11.1921 3.33214 11.1455C3.33835 11.1207 3.34146 11.0989 3.34146 11.0803L2.89428 9.524C2.87565 9.44945 2.87565 9.28171 3.06197 9.19784C3.22035 9.14192 3.57436 9.0301 3.76069 8.97418C3.76069 8.94933 3.75758 8.92759 3.75137 8.90895C3.75137 8.90274 3.74827 8.89342 3.74206 8.88099Z" fill="#A0A09F"/>
<g style="mix-blend-mode:multiply">
<path d="M48.404 21.2847L48.1152 22.3563C48.1152 22.3563 47.9568 22.5986 47.5283 22.552C47.1091 22.4961 47.2022 21.4244 47.2022 21.4244C47.2022 21.4244 47.2861 21.1262 46.5408 21.1822H46.0004C46.0004 21.1822 45.8979 21.0983 45.8979 20.9865C46.2333 20.9771 46.7737 20.9771 46.9879 20.9865C47.2954 21.0144 47.3885 21.2194 47.3699 21.5363C47.3513 21.8531 47.4165 22.2259 47.5656 22.3563C47.7053 22.4868 47.9289 22.2072 47.9289 22.2072L48.1525 21.1262C48.1525 21.1262 47.6401 18.4517 47.5562 18.2094C47.491 18.0416 47.3699 18.0882 47.3047 18.1348C47.3171 18.11 47.3389 18.0851 47.3699 18.0603C47.5562 17.9391 47.8916 17.818 47.9568 18.2001C48.022 18.5915 48.404 21.2847 48.404 21.2847Z" fill="#CBCCCE"/>
</g>
<path d="M47.3512 11.7606H18.0797C17.8375 11.7606 17.6418 11.5556 17.6418 11.3133C17.6418 11.071 17.8375 10.8753 18.0797 10.8753H47.3512C47.6027 10.8753 47.7984 11.071 47.7984 11.3133C47.7984 11.5556 47.6027 11.7606 47.3512 11.7606Z" fill="#CBCCCE"/>
<path fill-rule="evenodd" clip-rule="evenodd" d="M47.3512 11.8072H18.0797C17.8188 11.8072 17.5952 11.5836 17.5952 11.3133C17.5952 11.0431 17.8188 10.8287 18.0797 10.8287H47.3512C47.6213 10.8287 47.8449 11.0431 47.8449 11.3133C47.8449 11.5836 47.6213 11.8072 47.3512 11.8072ZM18.0797 10.9126C17.8654 10.9126 17.6884 11.099 17.6884 11.3133C17.6884 11.537 17.8654 11.714 18.0797 11.714H47.3512C47.5747 11.714 47.7518 11.537 47.7518 11.3133C47.7518 11.099 47.5747 10.9126 47.3512 10.9126H18.0797Z" fill="#9DA0A8"/>
<g style="mix-blend-mode:screen">
<path d="M46.9599 11.3785H18.1822C18.0797 11.3785 17.9958 11.2947 17.9958 11.1922C17.9958 11.0896 18.0797 10.9965 18.1822 10.9965H46.9599C47.0624 10.9965 47.1555 11.0896 47.1555 11.1922C47.1555 11.2947 47.0624 11.3785 46.9599 11.3785Z" fill="#CBCCCE"/>
</g>
<path d="M46.2052 19.8122C46.1866 19.6352 46.2146 19.4488 46.2239 19.2624C46.2332 19.1133 46.2425 18.9456 46.3077 18.8058C46.345 18.7219 46.4009 18.666 46.494 18.6567C46.5872 18.6567 46.6897 18.694 46.7735 18.7312C46.9226 18.7965 47.0623 18.8803 47.2114 18.9549L47.1462 20.623C47.0158 20.5857 46.8853 20.5391 46.7642 20.4832C46.4754 20.3527 46.2425 20.1384 46.2052 19.8122Z" fill="#E9A756"/>
<path fill-rule="evenodd" clip-rule="evenodd" d="M47.1368 20.6696C46.9784 20.623 46.8573 20.5764 46.7362 20.5205C46.3915 20.3621 46.1959 20.1198 46.1586 19.8216C46.14 19.6725 46.1586 19.5327 46.1679 19.3929C46.1741 19.3494 46.1772 19.3059 46.1772 19.2624V19.2252C46.1866 19.0761 46.1959 18.9176 46.2704 18.7778C46.317 18.6753 46.3915 18.6194 46.494 18.6101C46.5965 18.6101 46.6989 18.6474 46.7921 18.694C46.9039 18.7406 47.0157 18.8058 47.1275 18.8617L47.23 18.9176C47.2486 18.927 47.2579 18.9456 47.2579 18.9549L47.1927 20.623C47.1927 20.6354 47.1865 20.6479 47.1741 20.6603C47.1679 20.6665 47.1585 20.6696 47.1461 20.6696C47.1399 20.6696 47.1368 20.6696 47.1368 20.6696ZM47.0902 18.9456C46.9784 18.8804 46.8666 18.8244 46.7548 18.7685C46.671 18.7313 46.5778 18.7033 46.494 18.7033C46.4319 18.7095 46.3822 18.7499 46.3449 18.8244C46.289 18.9456 46.2797 19.0854 46.2704 19.2345V19.2624C46.2642 19.3059 46.2611 19.3494 46.2611 19.3929C46.2425 19.5327 46.2331 19.6725 46.2518 19.8123C46.2797 20.0732 46.4567 20.2875 46.7828 20.4366C46.876 20.4832 46.9784 20.5205 47.1089 20.5578L47.1648 18.9829L47.0902 18.9456Z" fill="#BE5533"/>
<path d="M46.5313 14.8359C46.6338 14.6682 46.904 14.547 47.1555 14.4631C47.4723 15.2087 47.3418 15.8703 47.3418 15.8703L47.2301 18.6474C46.9692 18.5821 46.6059 18.461 46.4568 18.3398C46.196 18.1441 46.2891 15.1993 46.5313 14.8359Z" fill="#E9A756"/>
<path fill-rule="evenodd" clip-rule="evenodd" d="M47.2207 18.6846C46.9412 18.6101 46.5872 18.4982 46.4288 18.3771C46.1307 18.1441 46.2797 15.1434 46.494 14.8172C46.5872 14.6681 46.8107 14.5377 47.1368 14.4258C47.1554 14.4258 47.1834 14.4352 47.1927 14.4538C47.5095 15.1993 47.3883 15.8516 47.379 15.8703L47.2766 18.6567C47.2703 18.6691 47.2641 18.6784 47.2579 18.6846C47.2455 18.6908 47.2362 18.6939 47.23 18.6939C47.2238 18.6939 47.2207 18.6908 47.2207 18.6846ZM46.5685 14.8545C46.3263 15.2273 46.2518 18.1348 46.4847 18.3119C46.6151 18.4237 46.9319 18.5262 47.1927 18.6008L47.2952 15.861C47.2952 15.861 47.4163 15.2273 47.1275 14.519C46.8387 14.6122 46.6431 14.7334 46.5685 14.8545Z" fill="#BE5533"/>
<path opacity="0.5" d="M16.1418 11.9564H14.1854C13.9712 11.9564 13.8035 11.7886 13.8035 11.5743C13.8035 11.3599 13.9712 11.1922 14.1854 11.1922H16.1418C16.3561 11.1922 16.5238 11.3599 16.5238 11.5743C16.5238 11.7886 16.3561 11.9564 16.1418 11.9564Z" fill="#7A7A7D"/>
<path d="M16.0674 11.6954H14.1017C13.8874 11.6954 13.7197 11.5276 13.7197 11.3133C13.7197 11.1083 13.8874 10.9312 14.1017 10.9312H16.0674C16.2724 10.9312 16.4494 11.1083 16.4494 11.3133C16.4494 11.5276 16.2724 11.6954 16.0674 11.6954Z" fill="#BABCBE"/>
<path fill-rule="evenodd" clip-rule="evenodd" d="M16.1233 11.7419H14.0364C13.8408 11.7419 13.6731 11.5742 13.6731 11.3785V11.2573C13.6731 11.0523 13.8408 10.8846 14.0364 10.8846H16.1233C16.3282 10.8846 16.4866 11.0523 16.4866 11.2573V11.3785C16.4866 11.5742 16.3282 11.7419 16.1233 11.7419ZM14.0364 10.9778C13.8874 10.9778 13.7663 11.0989 13.7663 11.2573V11.3785C13.7663 11.5276 13.8874 11.6487 14.0364 11.6487H16.1233C16.2723 11.6487 16.4027 11.5276 16.4027 11.3785V11.2573C16.4027 11.0989 16.2723 10.9778 16.1233 10.9778H14.0364Z" fill="#95979A"/>
<g style="mix-blend-mode:screen">
<path d="M15.3872 11.3786H14.0737C13.9898 11.3786 13.9153 11.3134 13.9153 11.2295C13.9153 11.1456 13.9898 11.0804 14.0737 11.0804H15.3872C15.4711 11.0804 15.5456 11.1456 15.5456 11.2295C15.5456 11.3134 15.4711 11.3786 15.3872 11.3786Z" fill="#CBCCCE"/>
</g>
</g>
<defs>
<clipPath id="clip0_1726_2485">
<rect width="47.9784" height="26" fill="white" transform="translate(0.5)"/>
</clipPath>
</defs>
</svg>
