<svg width="24" height="24" viewBox="0 0 24 24" fill="none" xmlns="http://www.w3.org/2000/svg">
<path d="M2.68446 17.24C2.35454 17.24 2.07818 17.1282 1.85538 16.9046C1.63181 16.6818 1.52002 16.4055 1.52002 16.0755C1.52002 15.7456 1.63181 15.4689 1.85538 15.2453C2.07818 15.0225 2.35454 14.9111 2.68446 14.9111H21.3155C21.6454 14.9111 21.9218 15.0225 22.1446 15.2453C22.3682 15.4689 22.48 15.7456 22.48 16.0755C22.48 16.4055 22.3682 16.6818 22.1446 16.9046C21.9218 17.1282 21.6454 17.24 21.3155 17.24H2.68446ZM2.68446 9.08889C2.35454 9.08889 2.07818 8.97749 1.85538 8.7547C1.63181 8.53113 1.52002 8.25438 1.52002 7.92445C1.52002 7.59453 1.63181 7.31778 1.85538 7.0942C2.07818 6.87141 2.35454 6.76001 2.68446 6.76001H21.3155C21.6454 6.76001 21.9218 6.87141 22.1446 7.0942C22.3682 7.31778 22.48 7.59453 22.48 7.92445C22.48 8.25438 22.3682 8.53113 22.1446 8.7547C21.9218 8.97749 21.6454 9.08889 21.3155 9.08889H2.68446Z" fill="#18181B"/>
</svg>
