<svg width="24" height="19" viewBox="0 0 24 19" fill="none" xmlns="http://www.w3.org/2000/svg">
<path d="M23.3318 2.49998C22.4976 2.87915 21.5985 3.12831 20.6668 3.24748C21.6201 2.67331 22.3568 1.76331 22.7035 0.669146C21.8043 1.21081 20.8076 1.58998 19.7568 1.80665C18.901 0.87498 17.6985 0.333313 16.3335 0.333313C13.7876 0.333313 11.7076 2.41331 11.7076 4.98081C11.7076 5.34915 11.751 5.70665 11.8268 6.04248C7.97012 5.84748 4.53596 3.99498 2.25012 1.18915C1.84929 1.87165 1.62179 2.67331 1.62179 3.51831C1.62179 5.13248 2.43429 6.56248 3.69096 7.37498C2.92179 7.37498 2.20679 7.15831 1.57846 6.83331V6.86581C1.57846 9.11915 3.18179 11.0041 5.30512 11.4266C4.62341 11.6132 3.90773 11.6392 3.21429 11.5025C3.50853 12.426 4.08479 13.2341 4.86206 13.8132C5.63933 14.3922 6.57852 14.7131 7.54762 14.7308C5.90489 16.0313 3.86862 16.7342 1.77346 16.7241C1.40512 16.7241 1.03679 16.7025 0.668457 16.6591C2.72679 17.9808 5.17512 18.75 7.79679 18.75C16.3335 18.75 21.0243 11.665 21.0243 5.52248C21.0243 5.31665 21.0243 5.12165 21.0135 4.91581C21.9235 4.26581 22.7035 3.44248 23.3318 2.49998V2.49998Z" fill="#27272A"/>
</svg>
