<svg width="22" height="22" viewBox="0 0 22 22" fill="none" xmlns="http://www.w3.org/2000/svg">
<path d="M0.171096 21.8334L1.63576 16.4514C0.670662 14.7969 0.163617 12.9153 0.166763 11C0.166763 5.01677 5.01685 0.166687 11.0001 0.166687C16.9833 0.166687 21.8334 5.01677 21.8334 11C21.8334 16.9833 16.9833 21.8334 11.0001 21.8334C9.0856 21.8364 7.20481 21.3298 5.55093 20.3654L0.171096 21.8334ZM7.09034 5.91702C6.95045 5.92571 6.81374 5.96255 6.68843 6.02535C6.57091 6.0919 6.46363 6.1751 6.36993 6.27235C6.23993 6.39477 6.16626 6.50094 6.08718 6.60385C5.68679 7.12493 5.47142 7.76456 5.4751 8.42169C5.47726 8.95252 5.61593 9.46927 5.8326 9.95244C6.27568 10.9296 7.00476 11.9642 7.96785 12.9229C8.19968 13.1537 8.4261 13.3855 8.66985 13.6011C9.86518 14.6535 11.2896 15.4125 12.8298 15.8176L13.4463 15.9119C13.6467 15.9227 13.8471 15.9075 14.0486 15.8978C14.3641 15.8815 14.6722 15.7961 14.951 15.6475C15.0929 15.5744 15.2313 15.4949 15.3659 15.4092C15.3659 15.4092 15.4125 15.3789 15.5013 15.3117C15.6476 15.2034 15.7375 15.1264 15.8588 14.9997C15.9488 14.9065 16.0268 14.7971 16.0863 14.6725C16.1708 14.4959 16.2553 14.159 16.29 13.8784C16.316 13.6639 16.3084 13.5469 16.3052 13.4744C16.3008 13.3584 16.2044 13.2382 16.0993 13.1873L15.4688 12.9045C15.4688 12.9045 14.5263 12.4939 13.9511 12.2318C13.8904 12.2053 13.8254 12.1903 13.7593 12.1874C13.6852 12.1797 13.6103 12.1881 13.5397 12.2118C13.4691 12.2355 13.4043 12.2741 13.3498 12.3249V12.3228C13.3444 12.3228 13.2718 12.3845 12.4886 13.3335C12.4436 13.3939 12.3817 13.4396 12.3107 13.4647C12.2397 13.4897 12.1629 13.4931 12.0899 13.4744C12.0193 13.4555 11.9502 13.4316 11.883 13.4029C11.7487 13.3465 11.7021 13.3249 11.61 13.2848L11.6046 13.2826C10.9848 13.012 10.411 12.6465 9.90376 12.1993C9.76726 12.0801 9.64051 11.9501 9.51051 11.8244C9.0843 11.4163 8.71287 10.9545 8.40551 10.4508L8.34159 10.3479C8.29569 10.2787 8.25857 10.2041 8.2311 10.1258C8.18993 9.96652 8.29718 9.83869 8.29718 9.83869C8.29718 9.83869 8.56043 9.55052 8.68285 9.39452C8.78478 9.26487 8.87988 9.12999 8.96776 8.99044C9.09559 8.7846 9.13568 8.57335 9.06851 8.40977C8.76518 7.66877 8.45101 6.93102 8.12818 6.19869C8.06426 6.05352 7.87468 5.94952 7.70243 5.92894C7.64393 5.92244 7.58543 5.91594 7.52693 5.9116C7.38144 5.90438 7.23566 5.90582 7.09034 5.91594V5.91702Z" fill="#27272A"/>
</svg>
