<svg xmlns="http://www.w3.org/2000/svg" width="229" height="320" viewBox="0 0 229 320"><defs></defs><rect width="229" height="320" fill="#F4F8F8"></rect><clipPath id="c2"><rect width="229" height="320"></rect></clipPath><g clip-path="url(#c2)"><circle cx="75" cy="55" r="4" fill="none" stroke="#1E7C82" stroke-width="0.8" opacity="0.6"></circle><circle cx="75" cy="55" r="11" fill="none" stroke="#1E7C82" stroke-width="0.8" opacity="0.6"></circle><circle cx="75" cy="55" r="18" fill="none" stroke="#1E7C82" stroke-width="0.8" opacity="0.6"></circle><circle cx="75" cy="55" r="25" fill="none" stroke="#1E7C82" stroke-width="0.8" opacity="0.6"></circle><circle cx="75" cy="55" r="32" fill="none" stroke="#1E7C82" stroke-width="0.8" opacity="0.6"></circle><circle cx="75" cy="55" r="39" fill="none" stroke="#1E7C82" stroke-width="0.8" opacity="0.6"></circle><circle cx="75" cy="55" r="46" fill="none" stroke="#1E7C82" stroke-width="0.8" opacity="0.6"></circle><circle cx="75" cy="55" r="53" fill="none" stroke="#1E7C82" stroke-width="0.8" opacity="0.6"></circle><circle cx="75" cy="55" r="60" fill="none" stroke="#1E7C82" stroke-width="0.8" opacity="0.6"></circle><circle cx="75" cy="55" r="67" fill="none" stroke="#1E7C82" stroke-width="0.8" opacity="0.6"></circle><circle cx="75" cy="55" r="74" fill="none" stroke="#1E7C82" stroke-width="0.8" opacity="0.6"></circle><circle cx="75" cy="55" r="81" fill="none" stroke="#1E7C82" stroke-width="0.8" opacity="0.6"></circle><circle cx="75" cy="55" r="88" fill="none" stroke="#1E7C82" stroke-width="0.8" opacity="0.6"></circle><circle cx="75" cy="55" r="95" fill="none" stroke="#1E7C82" stroke-width="0.8" opacity="0.6"></circle><circle cx="75" cy="55" r="102" fill="none" stroke="#1E7C82" stroke-width="0.8" opacity="0.6"></circle><circle cx="75" cy="55" r="109" fill="none" stroke="#1E7C82" stroke-width="0.8" opacity="0.6"></circle><circle cx="75" cy="55" r="116" fill="none" stroke="#1E7C82" stroke-width="0.8" opacity="0.6"></circle><circle cx="184" cy="175" r="4" fill="none" stroke="#1E7C82" stroke-width="0.8" opacity="0.4"></circle><circle cx="184" cy="175" r="11" fill="none" stroke="#1E7C82" stroke-width="0.8" opacity="0.4"></circle><circle cx="184" cy="175" r="18" fill="none" stroke="#1E7C82" stroke-width="0.8" opacity="0.4"></circle><circle cx="184" cy="175" r="25" fill="none" stroke="#1E7C82" stroke-width="0.8" opacity="0.4"></circle><circle cx="184" cy="175" r="32" fill="none" stroke="#1E7C82" stroke-width="0.8" opacity="0.4"></circle><circle cx="184" cy="175" r="39" fill="none" stroke="#1E7C82" stroke-width="0.8" opacity="0.4"></circle><circle cx="184" cy="175" r="46" fill="none" stroke="#1E7C82" stroke-width="0.8" opacity="0.4"></circle><circle cx="184" cy="175" r="53" fill="none" stroke="#1E7C82" stroke-width="0.8" opacity="0.4"></circle><circle cx="184" cy="175" r="60" fill="none" stroke="#1E7C82" stroke-width="0.8" opacity="0.4"></circle><circle cx="184" cy="175" r="67" fill="none" stroke="#1E7C82" stroke-width="0.8" opacity="0.4"></circle><circle cx="184" cy="175" r="74" fill="none" stroke="#1E7C82" stroke-width="0.8" opacity="0.4"></circle></g><text x="18" y="29" class="sans" font-size="6.5" letter-spacing="1.6" fill="#8B9896">ÉDITIONS DU MÉRIDIEN</text><text x="211" y="29" text-anchor="end" class="sans" font-size="6.5" letter-spacing="1.6" fill="#8B9896">1974</text><text x="18" y="246" class="serif" font-weight="500" font-size="42" fill="#1C2528">Geo<tspan x="18" dy="40">metría</tspan></text><text x="18" y="301" text-anchor="start" class="sans" font-size="10" letter-spacing="5" fill="#1C2528">ONOFF</text></svg>